%FSLAX45Y45*%
G04 Gerber Fmt 4.5, Leading zero omitted, Abs format (unit mm)*
G04 Created by KiCad (PCBNEW (5.1.2)-1) date 2022-03-05 22:59:54*
%MOMM*%
%LPD*%
G04 APERTURE LIST*
%ADD10C,0.050000*%
%ADD11C,0.200000*%
%ADD12C,0.300000*%
G04 APERTURE END LIST*
D10*
X9970400Y-5598800D02*
X9970400Y-13098800D01*
X19970400Y-5598800D02*
X9970400Y-5598800D01*
X19970400Y-13098800D02*
X19970400Y-5598800D01*
X9970400Y-13098800D02*
X19970400Y-13098800D01*
D11*
X10399000Y-6843000D02*
X10429000Y-6873000D01*
X10429000Y-6843000D02*
X10399000Y-6873000D01*
X10399000Y-7351000D02*
X10429000Y-7381000D01*
X10429000Y-7351000D02*
X10399000Y-7381000D01*
X10399000Y-7859000D02*
X10429000Y-7889000D01*
X10429000Y-7859000D02*
X10399000Y-7889000D01*
X10399000Y-8367000D02*
X10429000Y-8397000D01*
X10429000Y-8367000D02*
X10399000Y-8397000D01*
X10399000Y-9891000D02*
X10429000Y-9921000D01*
X10429000Y-9891000D02*
X10399000Y-9921000D01*
X10399000Y-10399000D02*
X10429000Y-10429000D01*
X10429000Y-10399000D02*
X10399000Y-10429000D01*
X10907000Y-6335000D02*
X10937000Y-6365000D01*
X10937000Y-6335000D02*
X10907000Y-6365000D01*
X10907000Y-6843000D02*
X10937000Y-6873000D01*
X10937000Y-6843000D02*
X10907000Y-6873000D01*
X10907000Y-7351000D02*
X10937000Y-7381000D01*
X10937000Y-7351000D02*
X10907000Y-7381000D01*
X10907000Y-7859000D02*
X10937000Y-7889000D01*
X10937000Y-7859000D02*
X10907000Y-7889000D01*
X11161000Y-12431000D02*
X11191000Y-12461000D01*
X11191000Y-12431000D02*
X11161000Y-12461000D01*
X11161000Y-12685000D02*
X11191000Y-12715000D01*
X11191000Y-12685000D02*
X11161000Y-12715000D01*
X11161000Y-12939000D02*
X11191000Y-12969000D01*
X11191000Y-12939000D02*
X11161000Y-12969000D01*
X11415000Y-7351000D02*
X11445000Y-7381000D01*
X11445000Y-7351000D02*
X11415000Y-7381000D01*
X11415000Y-7859000D02*
X11445000Y-7889000D01*
X11445000Y-7859000D02*
X11415000Y-7889000D01*
X11415000Y-8367000D02*
X11445000Y-8397000D01*
X11445000Y-8367000D02*
X11415000Y-8397000D01*
X11415000Y-8875000D02*
X11445000Y-8905000D01*
X11445000Y-8875000D02*
X11415000Y-8905000D01*
X11415000Y-10399000D02*
X11445000Y-10429000D01*
X11445000Y-10399000D02*
X11415000Y-10429000D01*
X11669000Y-12177000D02*
X11699000Y-12207000D01*
X11699000Y-12177000D02*
X11669000Y-12207000D01*
X11669000Y-12431000D02*
X11699000Y-12461000D01*
X11699000Y-12431000D02*
X11669000Y-12461000D01*
X11669000Y-12685000D02*
X11699000Y-12715000D01*
X11699000Y-12685000D02*
X11669000Y-12715000D01*
X11669000Y-12939000D02*
X11699000Y-12969000D01*
X11699000Y-12939000D02*
X11669000Y-12969000D01*
X11923000Y-7859000D02*
X11953000Y-7889000D01*
X11953000Y-7859000D02*
X11923000Y-7889000D01*
X11923000Y-8367000D02*
X11953000Y-8397000D01*
X11953000Y-8367000D02*
X11923000Y-8397000D01*
X11923000Y-8875000D02*
X11953000Y-8905000D01*
X11953000Y-8875000D02*
X11923000Y-8905000D01*
X11925000Y-10395000D02*
X11955000Y-10425000D01*
X11955000Y-10395000D02*
X11925000Y-10425000D01*
X12177000Y-11923000D02*
X12207000Y-11953000D01*
X12207000Y-11923000D02*
X12177000Y-11953000D01*
X12177000Y-12177000D02*
X12207000Y-12207000D01*
X12207000Y-12177000D02*
X12177000Y-12207000D01*
X12177000Y-12431000D02*
X12207000Y-12461000D01*
X12207000Y-12431000D02*
X12177000Y-12461000D01*
X12227800Y-10551400D02*
X12257800Y-10581400D01*
X12257800Y-10551400D02*
X12227800Y-10581400D01*
X12227800Y-10754600D02*
X12257800Y-10784600D01*
X12257800Y-10754600D02*
X12227800Y-10784600D01*
X12227800Y-10957800D02*
X12257800Y-10987800D01*
X12257800Y-10957800D02*
X12227800Y-10987800D01*
X12227800Y-11211800D02*
X12257800Y-11241800D01*
X12257800Y-11211800D02*
X12227800Y-11241800D01*
X12385000Y-12925000D02*
X12415000Y-12955000D01*
X12415000Y-12925000D02*
X12385000Y-12955000D01*
X12481800Y-11211800D02*
X12511800Y-11241800D01*
X12511800Y-11211800D02*
X12481800Y-11241800D01*
X12505400Y-8383800D02*
X12535400Y-8413800D01*
X12535400Y-8383800D02*
X12505400Y-8413800D01*
X12505400Y-8883800D02*
X12535400Y-8913800D01*
X12535400Y-8883800D02*
X12505400Y-8913800D01*
X12735800Y-10754600D02*
X12765800Y-10784600D01*
X12765800Y-10754600D02*
X12735800Y-10784600D01*
X12735800Y-10957800D02*
X12765800Y-10987800D01*
X12765800Y-10957800D02*
X12735800Y-10987800D01*
X12735800Y-11211800D02*
X12765800Y-11241800D01*
X12765800Y-11211800D02*
X12735800Y-11241800D01*
X12805000Y-10015000D02*
X12835000Y-10045000D01*
X12835000Y-10015000D02*
X12805000Y-10045000D01*
X12910000Y-7385000D02*
X12940000Y-7415000D01*
X12940000Y-7385000D02*
X12910000Y-7415000D01*
X12939000Y-8945000D02*
X12969000Y-8975000D01*
X12969000Y-8945000D02*
X12939000Y-8975000D01*
X12945000Y-9365000D02*
X12975000Y-9395000D01*
X12975000Y-9365000D02*
X12945000Y-9395000D01*
X12945000Y-9885000D02*
X12975000Y-9915000D01*
X12975000Y-9885000D02*
X12945000Y-9915000D01*
X12989800Y-10754600D02*
X13019800Y-10784600D01*
X13019800Y-10754600D02*
X12989800Y-10784600D01*
X12989800Y-10957800D02*
X13019800Y-10987800D01*
X13019800Y-10957800D02*
X12989800Y-10987800D01*
X13005400Y-8383800D02*
X13035400Y-8413800D01*
X13035400Y-8383800D02*
X13005400Y-8413800D01*
X13165000Y-8705000D02*
X13195000Y-8735000D01*
X13195000Y-8705000D02*
X13165000Y-8735000D01*
X13165000Y-9165000D02*
X13195000Y-9195000D01*
X13195000Y-9165000D02*
X13165000Y-9195000D01*
X13165000Y-9625000D02*
X13195000Y-9655000D01*
X13195000Y-9625000D02*
X13165000Y-9655000D01*
X13235000Y-7660000D02*
X13265000Y-7690000D01*
X13265000Y-7660000D02*
X13235000Y-7690000D01*
X13243800Y-10754600D02*
X13273800Y-10784600D01*
X13273800Y-10754600D02*
X13243800Y-10784600D01*
X13447000Y-11161000D02*
X13477000Y-11191000D01*
X13477000Y-11161000D02*
X13447000Y-11191000D01*
X13447000Y-11415000D02*
X13477000Y-11445000D01*
X13477000Y-11415000D02*
X13447000Y-11445000D01*
X13447000Y-12177000D02*
X13477000Y-12207000D01*
X13477000Y-12177000D02*
X13447000Y-12207000D01*
X13447000Y-12685000D02*
X13477000Y-12715000D01*
X13477000Y-12685000D02*
X13447000Y-12715000D01*
X13447000Y-12939000D02*
X13477000Y-12969000D01*
X13477000Y-12939000D02*
X13447000Y-12969000D01*
X13665000Y-9725000D02*
X13695000Y-9755000D01*
X13695000Y-9725000D02*
X13665000Y-9755000D01*
X13701000Y-11161000D02*
X13731000Y-11191000D01*
X13731000Y-11161000D02*
X13701000Y-11191000D01*
X13701000Y-11415000D02*
X13731000Y-11445000D01*
X13731000Y-11415000D02*
X13701000Y-11445000D01*
X13726400Y-10221200D02*
X13756400Y-10251200D01*
X13756400Y-10221200D02*
X13726400Y-10251200D01*
X13785000Y-11010000D02*
X13815000Y-11040000D01*
X13815000Y-11010000D02*
X13785000Y-11040000D01*
X13789900Y-10703800D02*
X13819900Y-10733800D01*
X13819900Y-10703800D02*
X13789900Y-10733800D01*
X13925000Y-10805000D02*
X13955000Y-10835000D01*
X13955000Y-10805000D02*
X13925000Y-10835000D01*
X13955000Y-11415000D02*
X13985000Y-11445000D01*
X13985000Y-11415000D02*
X13955000Y-11445000D01*
X13955000Y-12177000D02*
X13985000Y-12207000D01*
X13985000Y-12177000D02*
X13955000Y-12207000D01*
X13955000Y-12939000D02*
X13985000Y-12969000D01*
X13985000Y-12939000D02*
X13955000Y-12969000D01*
X14045000Y-9905000D02*
X14075000Y-9935000D01*
X14075000Y-9905000D02*
X14045000Y-9935000D01*
X14060000Y-7535000D02*
X14090000Y-7565000D01*
X14090000Y-7535000D02*
X14060000Y-7565000D01*
X14145000Y-9685000D02*
X14175000Y-9715000D01*
X14175000Y-9685000D02*
X14145000Y-9715000D01*
X14146400Y-9612240D02*
X14176400Y-9642240D01*
X14176400Y-9612240D02*
X14146400Y-9642240D01*
X14165000Y-9022000D02*
X14195000Y-9052000D01*
X14195000Y-9022000D02*
X14165000Y-9052000D01*
X14165000Y-9139800D02*
X14195000Y-9169800D01*
X14195000Y-9139800D02*
X14165000Y-9169800D01*
X14209000Y-12177000D02*
X14239000Y-12207000D01*
X14239000Y-12177000D02*
X14209000Y-12207000D01*
X14225000Y-9685000D02*
X14255000Y-9715000D01*
X14255000Y-9685000D02*
X14225000Y-9715000D01*
X14225140Y-9612240D02*
X14255140Y-9642240D01*
X14255140Y-9612240D02*
X14225140Y-9642240D01*
X14259800Y-10297400D02*
X14289800Y-10327400D01*
X14289800Y-10297400D02*
X14259800Y-10327400D01*
X14285000Y-9025000D02*
X14315000Y-9055000D01*
X14315000Y-9025000D02*
X14285000Y-9055000D01*
X14285000Y-9139800D02*
X14315000Y-9169800D01*
X14315000Y-9139800D02*
X14285000Y-9169800D01*
X14325840Y-10912080D02*
X14355840Y-10942080D01*
X14355840Y-10912080D02*
X14325840Y-10942080D01*
X14463000Y-9129000D02*
X14493000Y-9159000D01*
X14493000Y-9129000D02*
X14463000Y-9159000D01*
X14463000Y-10157700D02*
X14493000Y-10187700D01*
X14493000Y-10157700D02*
X14463000Y-10187700D01*
X14463000Y-10399000D02*
X14493000Y-10429000D01*
X14493000Y-10399000D02*
X14463000Y-10429000D01*
X14463000Y-10653000D02*
X14493000Y-10683000D01*
X14493000Y-10653000D02*
X14463000Y-10683000D01*
X14463000Y-12177000D02*
X14493000Y-12207000D01*
X14493000Y-12177000D02*
X14463000Y-12207000D01*
X14463000Y-12939000D02*
X14493000Y-12969000D01*
X14493000Y-12939000D02*
X14463000Y-12969000D01*
X14535000Y-9685000D02*
X14565000Y-9715000D01*
X14565000Y-9685000D02*
X14535000Y-9715000D01*
X14539200Y-11656300D02*
X14569200Y-11686300D01*
X14569200Y-11656300D02*
X14539200Y-11686300D01*
X14590000Y-11732500D02*
X14620000Y-11762500D01*
X14620000Y-11732500D02*
X14590000Y-11762500D01*
X14640800Y-9840200D02*
X14670800Y-9870200D01*
X14670800Y-9840200D02*
X14640800Y-9870200D01*
X14715000Y-10205000D02*
X14745000Y-10235000D01*
X14745000Y-10205000D02*
X14715000Y-10235000D01*
X14715000Y-10875000D02*
X14745000Y-10905000D01*
X14745000Y-10875000D02*
X14715000Y-10905000D01*
X14717000Y-8113000D02*
X14747000Y-8143000D01*
X14747000Y-8113000D02*
X14717000Y-8143000D01*
X14717000Y-10399000D02*
X14747000Y-10429000D01*
X14747000Y-10399000D02*
X14717000Y-10429000D01*
X14717000Y-10653000D02*
X14747000Y-10683000D01*
X14747000Y-10653000D02*
X14717000Y-10683000D01*
X14717000Y-12177000D02*
X14747000Y-12207000D01*
X14747000Y-12177000D02*
X14717000Y-12207000D01*
X14793200Y-11376900D02*
X14823200Y-11406900D01*
X14823200Y-11376900D02*
X14793200Y-11406900D01*
X14856700Y-11440400D02*
X14886700Y-11470400D01*
X14886700Y-11440400D02*
X14856700Y-11470400D01*
X14966600Y-11432100D02*
X14996600Y-11462100D01*
X14996600Y-11432100D02*
X14966600Y-11462100D01*
X14971000Y-10399000D02*
X15001000Y-10429000D01*
X15001000Y-10399000D02*
X14971000Y-10429000D01*
X14971000Y-10653000D02*
X15001000Y-10683000D01*
X15001000Y-10653000D02*
X14971000Y-10683000D01*
X14971000Y-10970500D02*
X15001000Y-11000500D01*
X15001000Y-10970500D02*
X14971000Y-11000500D01*
X14971000Y-12939000D02*
X15001000Y-12969000D01*
X15001000Y-12939000D02*
X14971000Y-12969000D01*
X14985000Y-9535000D02*
X15015000Y-9565000D01*
X15015000Y-9535000D02*
X14985000Y-9565000D01*
X15035000Y-8235000D02*
X15065000Y-8265000D01*
X15065000Y-8235000D02*
X15035000Y-8265000D01*
X15098000Y-10208500D02*
X15128000Y-10238500D01*
X15128000Y-10208500D02*
X15098000Y-10238500D01*
X15108483Y-7433483D02*
X15138483Y-7463483D01*
X15138483Y-7433483D02*
X15108483Y-7463483D01*
X15161517Y-7486517D02*
X15191517Y-7516517D01*
X15191517Y-7486517D02*
X15161517Y-7516517D01*
X15225000Y-7859000D02*
X15255000Y-7889000D01*
X15255000Y-7859000D02*
X15225000Y-7889000D01*
X15225000Y-8113000D02*
X15255000Y-8143000D01*
X15255000Y-8113000D02*
X15225000Y-8143000D01*
X15225000Y-8621000D02*
X15255000Y-8651000D01*
X15255000Y-8621000D02*
X15225000Y-8651000D01*
X15225000Y-9129000D02*
X15255000Y-9159000D01*
X15255000Y-9129000D02*
X15225000Y-9159000D01*
X15225000Y-11484499D02*
X15255000Y-11514499D01*
X15255000Y-11484499D02*
X15225000Y-11514499D01*
X15360000Y-9585000D02*
X15390000Y-9615000D01*
X15390000Y-9585000D02*
X15360000Y-9615000D01*
X15390100Y-10995900D02*
X15420100Y-11025900D01*
X15420100Y-10995900D02*
X15390100Y-11025900D01*
X15479000Y-7859000D02*
X15509000Y-7889000D01*
X15509000Y-7859000D02*
X15479000Y-7889000D01*
X15479000Y-8113000D02*
X15509000Y-8143000D01*
X15509000Y-8113000D02*
X15479000Y-8143000D01*
X15479000Y-11415000D02*
X15509000Y-11445000D01*
X15509000Y-11415000D02*
X15479000Y-11445000D01*
X15479000Y-12939000D02*
X15509000Y-12969000D01*
X15509000Y-12939000D02*
X15479000Y-12969000D01*
X15599650Y-12005550D02*
X15629650Y-12035550D01*
X15629650Y-12005550D02*
X15599650Y-12035550D01*
X15605000Y-10205000D02*
X15635000Y-10235000D01*
X15635000Y-10205000D02*
X15605000Y-10235000D01*
X15733000Y-8621000D02*
X15763000Y-8651000D01*
X15763000Y-8621000D02*
X15733000Y-8651000D01*
X15733000Y-9129000D02*
X15763000Y-9159000D01*
X15763000Y-9129000D02*
X15733000Y-9159000D01*
X15733000Y-11364200D02*
X15763000Y-11394200D01*
X15763000Y-11364200D02*
X15733000Y-11394200D01*
X15834600Y-7757400D02*
X15864600Y-7787400D01*
X15864600Y-7757400D02*
X15834600Y-7787400D01*
X15834600Y-7909800D02*
X15864600Y-7939800D01*
X15864600Y-7909800D02*
X15834600Y-7939800D01*
X15834600Y-8062200D02*
X15864600Y-8092200D01*
X15864600Y-8062200D02*
X15834600Y-8092200D01*
X15987000Y-7757400D02*
X16017000Y-7787400D01*
X16017000Y-7757400D02*
X15987000Y-7787400D01*
X15987000Y-7909800D02*
X16017000Y-7939800D01*
X16017000Y-7909800D02*
X15987000Y-7939800D01*
X15987000Y-8062200D02*
X16017000Y-8092200D01*
X16017000Y-8062200D02*
X15987000Y-8092200D01*
X15987000Y-10145000D02*
X16017000Y-10175000D01*
X16017000Y-10145000D02*
X15987000Y-10175000D01*
X15987000Y-11364200D02*
X16017000Y-11394200D01*
X16017000Y-11364200D02*
X15987000Y-11394200D01*
X15987000Y-11923000D02*
X16017000Y-11953000D01*
X16017000Y-11923000D02*
X15987000Y-11953000D01*
X15987000Y-12939000D02*
X16017000Y-12969000D01*
X16017000Y-12939000D02*
X15987000Y-12969000D01*
X16139400Y-8062200D02*
X16169400Y-8092200D01*
X16169400Y-8062200D02*
X16139400Y-8092200D01*
X16279100Y-10780000D02*
X16309100Y-10810000D01*
X16309100Y-10780000D02*
X16279100Y-10810000D01*
X16291800Y-8062200D02*
X16321800Y-8092200D01*
X16321800Y-8062200D02*
X16291800Y-8092200D01*
X16291800Y-11364200D02*
X16321800Y-11394200D01*
X16321800Y-11364200D02*
X16291800Y-11394200D01*
X16325000Y-8945000D02*
X16355000Y-8975000D01*
X16355000Y-8945000D02*
X16325000Y-8975000D01*
X16345000Y-8305000D02*
X16375000Y-8335000D01*
X16375000Y-8305000D02*
X16345000Y-8335000D01*
X16418800Y-10780000D02*
X16448800Y-10810000D01*
X16448800Y-10780000D02*
X16418800Y-10810000D01*
X16444200Y-7757400D02*
X16474200Y-7787400D01*
X16474200Y-7757400D02*
X16444200Y-7787400D01*
X16444200Y-7909800D02*
X16474200Y-7939800D01*
X16474200Y-7909800D02*
X16444200Y-7939800D01*
X16444200Y-8062200D02*
X16474200Y-8092200D01*
X16474200Y-8062200D02*
X16444200Y-8092200D01*
X16482300Y-9751300D02*
X16512300Y-9781300D01*
X16512300Y-9751300D02*
X16482300Y-9781300D01*
X16495000Y-10145000D02*
X16525000Y-10175000D01*
X16525000Y-10145000D02*
X16495000Y-10175000D01*
X16495000Y-11923000D02*
X16525000Y-11953000D01*
X16525000Y-11923000D02*
X16495000Y-11953000D01*
X16495000Y-12177000D02*
X16525000Y-12207000D01*
X16525000Y-12177000D02*
X16495000Y-12207000D01*
X16495000Y-12939000D02*
X16525000Y-12969000D01*
X16525000Y-12939000D02*
X16495000Y-12969000D01*
X16545800Y-7757400D02*
X16575800Y-7787400D01*
X16575800Y-7757400D02*
X16545800Y-7787400D01*
X16545800Y-7909800D02*
X16575800Y-7939800D01*
X16575800Y-7909800D02*
X16545800Y-7939800D01*
X16545800Y-8062200D02*
X16575800Y-8092200D01*
X16575800Y-8062200D02*
X16545800Y-8092200D01*
X16571200Y-10780000D02*
X16601200Y-10810000D01*
X16601200Y-10780000D02*
X16571200Y-10810000D01*
X16596600Y-11364200D02*
X16626600Y-11394200D01*
X16626600Y-11364200D02*
X16596600Y-11394200D01*
X16605000Y-8705000D02*
X16635000Y-8735000D01*
X16635000Y-8705000D02*
X16605000Y-8735000D01*
X16645000Y-7265000D02*
X16675000Y-7295000D01*
X16675000Y-7265000D02*
X16645000Y-7295000D01*
X16735000Y-6835000D02*
X16765000Y-6865000D01*
X16765000Y-6835000D02*
X16735000Y-6865000D01*
X16760000Y-6485000D02*
X16790000Y-6515000D01*
X16790000Y-6485000D02*
X16760000Y-6515000D01*
X16774400Y-10780000D02*
X16804400Y-10810000D01*
X16804400Y-10780000D02*
X16774400Y-10810000D01*
X16901400Y-11364200D02*
X16931400Y-11394200D01*
X16931400Y-11364200D02*
X16901400Y-11394200D01*
X16977600Y-10780000D02*
X17007600Y-10810000D01*
X17007600Y-10780000D02*
X16977600Y-10810000D01*
X17003000Y-7605000D02*
X17033000Y-7635000D01*
X17033000Y-7605000D02*
X17003000Y-7635000D01*
X17003000Y-8113000D02*
X17033000Y-8143000D01*
X17033000Y-8113000D02*
X17003000Y-8143000D01*
X17003000Y-9637000D02*
X17033000Y-9667000D01*
X17033000Y-9637000D02*
X17003000Y-9667000D01*
X17003000Y-10145000D02*
X17033000Y-10175000D01*
X17033000Y-10145000D02*
X17003000Y-10175000D01*
X17003000Y-11923000D02*
X17033000Y-11953000D01*
X17033000Y-11923000D02*
X17003000Y-11953000D01*
X17003000Y-12177000D02*
X17033000Y-12207000D01*
X17033000Y-12177000D02*
X17003000Y-12207000D01*
X17003000Y-12939000D02*
X17033000Y-12969000D01*
X17033000Y-12939000D02*
X17003000Y-12969000D01*
X17142700Y-10564100D02*
X17172700Y-10594100D01*
X17172700Y-10564100D02*
X17142700Y-10594100D01*
X17142700Y-11021300D02*
X17172700Y-11051300D01*
X17172700Y-11021300D02*
X17142700Y-11051300D01*
X17155400Y-11669000D02*
X17185400Y-11699000D01*
X17185400Y-11669000D02*
X17155400Y-11699000D01*
X17180800Y-10780000D02*
X17210800Y-10810000D01*
X17210800Y-10780000D02*
X17180800Y-10810000D01*
X17206200Y-11364200D02*
X17236200Y-11394200D01*
X17236200Y-11364200D02*
X17206200Y-11394200D01*
X17307800Y-11618200D02*
X17337800Y-11648200D01*
X17337800Y-11618200D02*
X17307800Y-11648200D01*
X17345900Y-10564100D02*
X17375900Y-10594100D01*
X17375900Y-10564100D02*
X17345900Y-10594100D01*
X17345900Y-11021300D02*
X17375900Y-11051300D01*
X17375900Y-11021300D02*
X17345900Y-11051300D01*
X17384000Y-10780000D02*
X17414000Y-10810000D01*
X17414000Y-10780000D02*
X17384000Y-10810000D01*
X17397600Y-12175100D02*
X17427600Y-12205100D01*
X17427600Y-12175100D02*
X17397600Y-12205100D01*
X17406200Y-11215000D02*
X17436200Y-11245000D01*
X17436200Y-11215000D02*
X17406200Y-11245000D01*
X17409400Y-11618200D02*
X17439400Y-11648200D01*
X17439400Y-11618200D02*
X17409400Y-11648200D01*
X17511000Y-7097000D02*
X17541000Y-7127000D01*
X17541000Y-7097000D02*
X17511000Y-7127000D01*
X17511000Y-7605000D02*
X17541000Y-7635000D01*
X17541000Y-7605000D02*
X17511000Y-7635000D01*
X17511000Y-8113000D02*
X17541000Y-8143000D01*
X17541000Y-8113000D02*
X17511000Y-8143000D01*
X17511000Y-8621000D02*
X17541000Y-8651000D01*
X17541000Y-8621000D02*
X17511000Y-8651000D01*
X17511000Y-9129000D02*
X17541000Y-9159000D01*
X17541000Y-9129000D02*
X17511000Y-9159000D01*
X17511000Y-9637000D02*
X17541000Y-9667000D01*
X17541000Y-9637000D02*
X17511000Y-9667000D01*
X17511000Y-9891000D02*
X17541000Y-9921000D01*
X17541000Y-9891000D02*
X17511000Y-9921000D01*
X17511000Y-10145000D02*
X17541000Y-10175000D01*
X17541000Y-10145000D02*
X17511000Y-10175000D01*
X17511000Y-11923000D02*
X17541000Y-11953000D01*
X17541000Y-11923000D02*
X17511000Y-11953000D01*
X17511000Y-12939000D02*
X17541000Y-12969000D01*
X17541000Y-12939000D02*
X17511000Y-12969000D01*
X17517900Y-10564100D02*
X17547900Y-10594100D01*
X17547900Y-10564100D02*
X17517900Y-10594100D01*
X17549100Y-11021300D02*
X17579100Y-11051300D01*
X17579100Y-11021300D02*
X17549100Y-11051300D01*
X17587200Y-10780000D02*
X17617200Y-10810000D01*
X17617200Y-10780000D02*
X17587200Y-10810000D01*
X17636460Y-12124400D02*
X17666460Y-12154400D01*
X17666460Y-12124400D02*
X17636460Y-12154400D01*
X17711000Y-11215000D02*
X17741000Y-11245000D01*
X17741000Y-11215000D02*
X17711000Y-11245000D01*
X17790400Y-10780000D02*
X17820400Y-10810000D01*
X17820400Y-10780000D02*
X17790400Y-10810000D01*
X17803100Y-11021300D02*
X17833100Y-11051300D01*
X17833100Y-11021300D02*
X17803100Y-11051300D01*
X17987600Y-10532000D02*
X18017600Y-10562000D01*
X18017600Y-10532000D02*
X17987600Y-10562000D01*
X18006300Y-11021300D02*
X18036300Y-11051300D01*
X18036300Y-11021300D02*
X18006300Y-11051300D01*
X18019000Y-7097000D02*
X18049000Y-7127000D01*
X18049000Y-7097000D02*
X18019000Y-7127000D01*
X18019000Y-7097000D02*
X18049000Y-7127000D01*
X18049000Y-7097000D02*
X18019000Y-7127000D01*
X18019000Y-7605000D02*
X18049000Y-7635000D01*
X18049000Y-7605000D02*
X18019000Y-7635000D01*
X18019000Y-8113000D02*
X18049000Y-8143000D01*
X18049000Y-8113000D02*
X18019000Y-8143000D01*
X18019000Y-8621000D02*
X18049000Y-8651000D01*
X18049000Y-8621000D02*
X18019000Y-8651000D01*
X18019000Y-9129000D02*
X18049000Y-9159000D01*
X18049000Y-9129000D02*
X18019000Y-9159000D01*
X18019000Y-9637000D02*
X18049000Y-9667000D01*
X18049000Y-9637000D02*
X18019000Y-9667000D01*
X18019000Y-9891000D02*
X18049000Y-9921000D01*
X18049000Y-9891000D02*
X18019000Y-9921000D01*
X18019000Y-10145000D02*
X18049000Y-10175000D01*
X18049000Y-10145000D02*
X18019000Y-10175000D01*
X18019000Y-12939000D02*
X18049000Y-12969000D01*
X18049000Y-12939000D02*
X18019000Y-12969000D01*
X18044400Y-10780000D02*
X18074400Y-10810000D01*
X18074400Y-10780000D02*
X18044400Y-10810000D01*
X18066600Y-11215000D02*
X18096600Y-11245000D01*
X18096600Y-11215000D02*
X18066600Y-11245000D01*
X18140000Y-10532000D02*
X18170000Y-10562000D01*
X18170000Y-10532000D02*
X18140000Y-10562000D01*
X18196800Y-10106900D02*
X18226800Y-10136900D01*
X18226800Y-10106900D02*
X18196800Y-10136900D01*
X18247600Y-10983200D02*
X18277600Y-11013200D01*
X18277600Y-10983200D02*
X18247600Y-11013200D01*
X18527000Y-7097000D02*
X18557000Y-7127000D01*
X18557000Y-7097000D02*
X18527000Y-7127000D01*
X18527000Y-7605000D02*
X18557000Y-7635000D01*
X18557000Y-7605000D02*
X18527000Y-7635000D01*
X18527000Y-8113000D02*
X18557000Y-8143000D01*
X18557000Y-8113000D02*
X18527000Y-8143000D01*
X18527000Y-8621000D02*
X18557000Y-8651000D01*
X18557000Y-8621000D02*
X18527000Y-8651000D01*
X18527000Y-9129000D02*
X18557000Y-9159000D01*
X18557000Y-9129000D02*
X18527000Y-9159000D01*
X18527000Y-9637000D02*
X18557000Y-9667000D01*
X18557000Y-9637000D02*
X18527000Y-9667000D01*
X19035000Y-6589000D02*
X19065000Y-6619000D01*
X19065000Y-6589000D02*
X19035000Y-6619000D01*
X19035000Y-7097000D02*
X19065000Y-7127000D01*
X19065000Y-7097000D02*
X19035000Y-7127000D01*
X19035000Y-7605000D02*
X19065000Y-7635000D01*
X19065000Y-7605000D02*
X19035000Y-7635000D01*
X19035000Y-8113000D02*
X19065000Y-8143000D01*
X19065000Y-8113000D02*
X19035000Y-8143000D01*
X19035000Y-9129000D02*
X19065000Y-9159000D01*
X19065000Y-9129000D02*
X19035000Y-9159000D01*
X19035000Y-9637000D02*
X19065000Y-9667000D01*
X19065000Y-9637000D02*
X19035000Y-9667000D01*
X19035000Y-11161000D02*
X19065000Y-11191000D01*
X19065000Y-11161000D02*
X19035000Y-11191000D01*
X19035000Y-11669000D02*
X19065000Y-11699000D01*
X19065000Y-11669000D02*
X19035000Y-11699000D01*
X19289000Y-10145000D02*
X19319000Y-10175000D01*
X19319000Y-10145000D02*
X19289000Y-10175000D01*
X19289000Y-10653000D02*
X19319000Y-10683000D01*
X19319000Y-10653000D02*
X19289000Y-10683000D01*
X19543000Y-6589000D02*
X19573000Y-6619000D01*
X19573000Y-6589000D02*
X19543000Y-6619000D01*
X19543000Y-7097000D02*
X19573000Y-7127000D01*
X19573000Y-7097000D02*
X19543000Y-7127000D01*
X19543000Y-7605000D02*
X19573000Y-7635000D01*
X19573000Y-7605000D02*
X19543000Y-7635000D01*
X19543000Y-8113000D02*
X19573000Y-8143000D01*
X19573000Y-8113000D02*
X19543000Y-8143000D01*
X19543000Y-9129000D02*
X19573000Y-9159000D01*
X19573000Y-9129000D02*
X19543000Y-9159000D01*
X19543000Y-9637000D02*
X19573000Y-9667000D01*
X19573000Y-9637000D02*
X19543000Y-9667000D01*
X19543000Y-10145000D02*
X19573000Y-10175000D01*
X19573000Y-10145000D02*
X19543000Y-10175000D01*
X19543000Y-10653000D02*
X19573000Y-10683000D01*
X19573000Y-10653000D02*
X19543000Y-10683000D01*
X19543000Y-11161000D02*
X19573000Y-11191000D01*
X19573000Y-11161000D02*
X19543000Y-11191000D01*
X19543000Y-11669000D02*
X19573000Y-11699000D01*
X19573000Y-11669000D02*
X19543000Y-11699000D01*
X10561000Y-11239500D02*
G75*
G03X10561000Y-11239500I-20000J0D01*
G01*
X10561000Y-11557000D02*
G75*
G03X10561000Y-11557000I-20000J0D01*
G01*
X10561000Y-12139300D02*
G75*
G03X10561000Y-12139300I-20000J0D01*
G01*
X10561900Y-11885300D02*
G75*
G03X10561900Y-11885300I-20000J0D01*
G01*
X12554900Y-12357100D02*
G75*
G03X12554900Y-12357100I-20000J0D01*
G01*
X12732700Y-7975600D02*
G75*
G03X12732700Y-7975600I-20000J0D01*
G01*
X13482000Y-7391400D02*
G75*
G03X13482000Y-7391400I-20000J0D01*
G01*
X13634400Y-6959600D02*
G75*
G03X13634400Y-6959600I-20000J0D01*
G01*
X14193200Y-7950200D02*
G75*
G03X14193200Y-7950200I-20000J0D01*
G01*
X14413800Y-8332000D02*
G75*
G03X14413800Y-8332000I-20000J0D01*
G01*
X14840900Y-9817100D02*
G75*
G03X14840900Y-9817100I-20000J0D01*
G01*
X14891700Y-6756400D02*
G75*
G03X14891700Y-6756400I-20000J0D01*
G01*
X15780700Y-10096500D02*
G75*
G03X15780700Y-10096500I-20000J0D01*
G01*
X16796700Y-7137400D02*
G75*
G03X16796700Y-7137400I-20000J0D01*
G01*
X10605400Y-8926200D02*
X10605400Y-9002400D01*
X10567300Y-8964300D02*
X10643500Y-8964300D01*
X10605400Y-9180200D02*
X10605400Y-9256400D01*
X10567300Y-9218300D02*
X10643500Y-9218300D01*
X10605400Y-9434200D02*
X10605400Y-9510400D01*
X10567300Y-9472300D02*
X10643500Y-9472300D01*
X10605400Y-9688200D02*
X10605400Y-9764400D01*
X10567300Y-9726300D02*
X10643500Y-9726300D01*
X10859400Y-8926200D02*
X10859400Y-9002400D01*
X10821300Y-8964300D02*
X10897500Y-8964300D01*
X10859400Y-9180200D02*
X10859400Y-9256400D01*
X10821300Y-9218300D02*
X10897500Y-9218300D01*
X10859400Y-9434200D02*
X10859400Y-9510400D01*
X10821300Y-9472300D02*
X10897500Y-9472300D01*
X10859400Y-9688200D02*
X10859400Y-9764400D01*
X10821300Y-9726300D02*
X10897500Y-9726300D01*
X12303556Y-7680756D02*
X12303556Y-7610044D01*
X12232844Y-7610044D01*
X12232844Y-7680756D01*
X12303556Y-7680756D01*
X12303556Y-7934756D02*
X12303556Y-7864044D01*
X12232844Y-7864044D01*
X12232844Y-7934756D01*
X12303556Y-7934756D01*
X11185956Y-6105956D02*
X11185956Y-6035244D01*
X11115244Y-6035244D01*
X11115244Y-6105956D01*
X11185956Y-6105956D01*
X11185956Y-6359956D02*
X11185956Y-6289244D01*
X11115244Y-6289244D01*
X11115244Y-6359956D01*
X11185956Y-6359956D01*
X11439956Y-6105956D02*
X11439956Y-6035244D01*
X11369244Y-6035244D01*
X11369244Y-6105956D01*
X11439956Y-6105956D01*
X11439956Y-6359956D02*
X11439956Y-6289244D01*
X11369244Y-6289244D01*
X11369244Y-6359956D01*
X11439956Y-6359956D01*
X11693956Y-6105956D02*
X11693956Y-6035244D01*
X11623244Y-6035244D01*
X11623244Y-6105956D01*
X11693956Y-6105956D01*
X11693956Y-6359956D02*
X11693956Y-6289244D01*
X11623244Y-6289244D01*
X11623244Y-6359956D01*
X11693956Y-6359956D01*
X11947956Y-6105956D02*
X11947956Y-6035244D01*
X11877244Y-6035244D01*
X11877244Y-6105956D01*
X11947956Y-6105956D01*
X11947956Y-6359956D02*
X11947956Y-6289244D01*
X11877244Y-6289244D01*
X11877244Y-6359956D01*
X11947956Y-6359956D01*
X12201956Y-6105956D02*
X12201956Y-6035244D01*
X12131244Y-6035244D01*
X12131244Y-6105956D01*
X12201956Y-6105956D01*
X12201956Y-6359956D02*
X12201956Y-6289244D01*
X12131244Y-6289244D01*
X12131244Y-6359956D01*
X12201956Y-6359956D01*
X12455956Y-6105956D02*
X12455956Y-6035244D01*
X12385244Y-6035244D01*
X12385244Y-6105956D01*
X12455956Y-6105956D01*
X12455956Y-6359956D02*
X12455956Y-6289244D01*
X12385244Y-6289244D01*
X12385244Y-6359956D01*
X12455956Y-6359956D01*
X12709956Y-6105956D02*
X12709956Y-6035244D01*
X12639244Y-6035244D01*
X12639244Y-6105956D01*
X12709956Y-6105956D01*
X12709956Y-6359956D02*
X12709956Y-6289244D01*
X12639244Y-6289244D01*
X12639244Y-6359956D01*
X12709956Y-6359956D01*
X12963956Y-6105956D02*
X12963956Y-6035244D01*
X12893244Y-6035244D01*
X12893244Y-6105956D01*
X12963956Y-6105956D01*
X12963956Y-6359956D02*
X12963956Y-6289244D01*
X12893244Y-6289244D01*
X12893244Y-6359956D01*
X12963956Y-6359956D01*
X13217956Y-6105956D02*
X13217956Y-6035244D01*
X13147244Y-6035244D01*
X13147244Y-6105956D01*
X13217956Y-6105956D01*
X13217956Y-6359956D02*
X13217956Y-6289244D01*
X13147244Y-6289244D01*
X13147244Y-6359956D01*
X13217956Y-6359956D01*
X13471956Y-6105956D02*
X13471956Y-6035244D01*
X13401244Y-6035244D01*
X13401244Y-6105956D01*
X13471956Y-6105956D01*
X13471956Y-6359956D02*
X13471956Y-6289244D01*
X13401244Y-6289244D01*
X13401244Y-6359956D01*
X13471956Y-6359956D01*
X13725956Y-6105956D02*
X13725956Y-6035244D01*
X13655244Y-6035244D01*
X13655244Y-6105956D01*
X13725956Y-6105956D01*
X13725956Y-6359956D02*
X13725956Y-6289244D01*
X13655244Y-6289244D01*
X13655244Y-6359956D01*
X13725956Y-6359956D01*
X13979956Y-6105956D02*
X13979956Y-6035244D01*
X13909244Y-6035244D01*
X13909244Y-6105956D01*
X13979956Y-6105956D01*
X13979956Y-6359956D02*
X13979956Y-6289244D01*
X13909244Y-6289244D01*
X13909244Y-6359956D01*
X13979956Y-6359956D01*
X14233956Y-6105956D02*
X14233956Y-6035244D01*
X14163244Y-6035244D01*
X14163244Y-6105956D01*
X14233956Y-6105956D01*
X14233956Y-6359956D02*
X14233956Y-6289244D01*
X14163244Y-6289244D01*
X14163244Y-6359956D01*
X14233956Y-6359956D01*
X14487956Y-6105956D02*
X14487956Y-6035244D01*
X14417244Y-6035244D01*
X14417244Y-6105956D01*
X14487956Y-6105956D01*
X14487956Y-6359956D02*
X14487956Y-6289244D01*
X14417244Y-6289244D01*
X14417244Y-6359956D01*
X14487956Y-6359956D01*
X14741956Y-6105956D02*
X14741956Y-6035244D01*
X14671244Y-6035244D01*
X14671244Y-6105956D01*
X14741956Y-6105956D01*
X14741956Y-6359956D02*
X14741956Y-6289244D01*
X14671244Y-6289244D01*
X14671244Y-6359956D01*
X14741956Y-6359956D01*
X14995956Y-6105956D02*
X14995956Y-6035244D01*
X14925244Y-6035244D01*
X14925244Y-6105956D01*
X14995956Y-6105956D01*
X14995956Y-6359956D02*
X14995956Y-6289244D01*
X14925244Y-6289244D01*
X14925244Y-6359956D01*
X14995956Y-6359956D01*
X15249956Y-6105956D02*
X15249956Y-6035244D01*
X15179244Y-6035244D01*
X15179244Y-6105956D01*
X15249956Y-6105956D01*
X15249956Y-6359956D02*
X15249956Y-6289244D01*
X15179244Y-6289244D01*
X15179244Y-6359956D01*
X15249956Y-6359956D01*
X15503956Y-6105956D02*
X15503956Y-6035244D01*
X15433244Y-6035244D01*
X15433244Y-6105956D01*
X15503956Y-6105956D01*
X15503956Y-6359956D02*
X15503956Y-6289244D01*
X15433244Y-6289244D01*
X15433244Y-6359956D01*
X15503956Y-6359956D01*
X15757956Y-6105956D02*
X15757956Y-6035244D01*
X15687244Y-6035244D01*
X15687244Y-6105956D01*
X15757956Y-6105956D01*
X15757956Y-6359956D02*
X15757956Y-6289244D01*
X15687244Y-6289244D01*
X15687244Y-6359956D01*
X15757956Y-6359956D01*
X16011956Y-6105956D02*
X16011956Y-6035244D01*
X15941244Y-6035244D01*
X15941244Y-6105956D01*
X16011956Y-6105956D01*
X16011956Y-6359956D02*
X16011956Y-6289244D01*
X15941244Y-6289244D01*
X15941244Y-6359956D01*
X16011956Y-6359956D01*
X16888256Y-12595656D02*
X16888256Y-12524944D01*
X16817544Y-12524944D01*
X16817544Y-12595656D01*
X16888256Y-12595656D01*
X17142256Y-12595656D02*
X17142256Y-12524944D01*
X17071544Y-12524944D01*
X17071544Y-12595656D01*
X17142256Y-12595656D01*
X17396256Y-12595656D02*
X17396256Y-12524944D01*
X17325544Y-12524944D01*
X17325544Y-12595656D01*
X17396256Y-12595656D01*
X17650256Y-12595656D02*
X17650256Y-12524944D01*
X17579544Y-12524944D01*
X17579544Y-12595656D01*
X17650256Y-12595656D01*
X17904256Y-12595656D02*
X17904256Y-12524944D01*
X17833544Y-12524944D01*
X17833544Y-12595656D01*
X17904256Y-12595656D01*
X18158256Y-12595656D02*
X18158256Y-12524944D01*
X18087544Y-12524944D01*
X18087544Y-12595656D01*
X18158256Y-12595656D01*
X13863756Y-12400156D02*
X13863756Y-12329444D01*
X13793044Y-12329444D01*
X13793044Y-12400156D01*
X13863756Y-12400156D01*
X13863756Y-12654156D02*
X13863756Y-12583444D01*
X13793044Y-12583444D01*
X13793044Y-12654156D01*
X13863756Y-12654156D01*
X14117756Y-12400156D02*
X14117756Y-12329444D01*
X14047044Y-12329444D01*
X14047044Y-12400156D01*
X14117756Y-12400156D01*
X14117756Y-12654156D02*
X14117756Y-12583444D01*
X14047044Y-12583444D01*
X14047044Y-12654156D01*
X14117756Y-12654156D01*
X14371756Y-12400156D02*
X14371756Y-12329444D01*
X14301044Y-12329444D01*
X14301044Y-12400156D01*
X14371756Y-12400156D01*
X14371756Y-12654156D02*
X14371756Y-12583444D01*
X14301044Y-12583444D01*
X14301044Y-12654156D01*
X14371756Y-12654156D01*
X14625756Y-12400156D02*
X14625756Y-12329444D01*
X14555044Y-12329444D01*
X14555044Y-12400156D01*
X14625756Y-12400156D01*
X14625756Y-12654156D02*
X14625756Y-12583444D01*
X14555044Y-12583444D01*
X14555044Y-12654156D01*
X14625756Y-12654156D01*
X14879756Y-12400156D02*
X14879756Y-12329444D01*
X14809044Y-12329444D01*
X14809044Y-12400156D01*
X14879756Y-12400156D01*
X14879756Y-12654156D02*
X14879756Y-12583444D01*
X14809044Y-12583444D01*
X14809044Y-12654156D01*
X14879756Y-12654156D01*
X15133756Y-12400156D02*
X15133756Y-12329444D01*
X15063044Y-12329444D01*
X15063044Y-12400156D01*
X15133756Y-12400156D01*
X15133756Y-12654156D02*
X15133756Y-12583444D01*
X15063044Y-12583444D01*
X15063044Y-12654156D01*
X15133756Y-12654156D01*
X15387756Y-12400156D02*
X15387756Y-12329444D01*
X15317044Y-12329444D01*
X15317044Y-12400156D01*
X15387756Y-12400156D01*
X15387756Y-12654156D02*
X15387756Y-12583444D01*
X15317044Y-12583444D01*
X15317044Y-12654156D01*
X15387756Y-12654156D01*
X15641756Y-12400156D02*
X15641756Y-12329444D01*
X15571044Y-12329444D01*
X15571044Y-12400156D01*
X15641756Y-12400156D01*
X15641756Y-12654156D02*
X15641756Y-12583444D01*
X15571044Y-12583444D01*
X15571044Y-12654156D01*
X15641756Y-12654156D01*
X15895756Y-12400156D02*
X15895756Y-12329444D01*
X15825044Y-12329444D01*
X15825044Y-12400156D01*
X15895756Y-12400156D01*
X15895756Y-12654156D02*
X15895756Y-12583444D01*
X15825044Y-12583444D01*
X15825044Y-12654156D01*
X15895756Y-12654156D01*
X16149756Y-12400156D02*
X16149756Y-12329444D01*
X16079044Y-12329444D01*
X16079044Y-12400156D01*
X16149756Y-12400156D01*
X16149756Y-12654156D02*
X16149756Y-12583444D01*
X16079044Y-12583444D01*
X16079044Y-12654156D01*
X16149756Y-12654156D01*
X16570756Y-6105956D02*
X16570756Y-6035244D01*
X16500044Y-6035244D01*
X16500044Y-6105956D01*
X16570756Y-6105956D01*
X16570756Y-6359956D02*
X16570756Y-6289244D01*
X16500044Y-6289244D01*
X16500044Y-6359956D01*
X16570756Y-6359956D01*
X16824756Y-6105956D02*
X16824756Y-6035244D01*
X16754044Y-6035244D01*
X16754044Y-6105956D01*
X16824756Y-6105956D01*
X16824756Y-6359956D02*
X16824756Y-6289244D01*
X16754044Y-6289244D01*
X16754044Y-6359956D01*
X16824756Y-6359956D01*
X17078756Y-6105956D02*
X17078756Y-6035244D01*
X17008044Y-6035244D01*
X17008044Y-6105956D01*
X17078756Y-6105956D01*
X17078756Y-6359956D02*
X17078756Y-6289244D01*
X17008044Y-6289244D01*
X17008044Y-6359956D01*
X17078756Y-6359956D01*
X17332756Y-6105956D02*
X17332756Y-6035244D01*
X17262044Y-6035244D01*
X17262044Y-6105956D01*
X17332756Y-6105956D01*
X17332756Y-6359956D02*
X17332756Y-6289244D01*
X17262044Y-6289244D01*
X17262044Y-6359956D01*
X17332756Y-6359956D01*
X17586756Y-6105956D02*
X17586756Y-6035244D01*
X17516044Y-6035244D01*
X17516044Y-6105956D01*
X17586756Y-6105956D01*
X17586756Y-6359956D02*
X17586756Y-6289244D01*
X17516044Y-6289244D01*
X17516044Y-6359956D01*
X17586756Y-6359956D01*
X17840756Y-6105956D02*
X17840756Y-6035244D01*
X17770044Y-6035244D01*
X17770044Y-6105956D01*
X17840756Y-6105956D01*
X17840756Y-6359956D02*
X17840756Y-6289244D01*
X17770044Y-6289244D01*
X17770044Y-6359956D01*
X17840756Y-6359956D01*
X18094756Y-6105956D02*
X18094756Y-6035244D01*
X18024044Y-6035244D01*
X18024044Y-6105956D01*
X18094756Y-6105956D01*
X18094756Y-6359956D02*
X18094756Y-6289244D01*
X18024044Y-6289244D01*
X18024044Y-6359956D01*
X18094756Y-6359956D01*
X18348756Y-6105956D02*
X18348756Y-6035244D01*
X18278044Y-6035244D01*
X18278044Y-6105956D01*
X18348756Y-6105956D01*
X18348756Y-6359956D02*
X18348756Y-6289244D01*
X18278044Y-6289244D01*
X18278044Y-6359956D01*
X18348756Y-6359956D01*
X18602756Y-6105956D02*
X18602756Y-6035244D01*
X18532044Y-6035244D01*
X18532044Y-6105956D01*
X18602756Y-6105956D01*
X18602756Y-6359956D02*
X18602756Y-6289244D01*
X18532044Y-6289244D01*
X18532044Y-6359956D01*
X18602756Y-6359956D01*
X18856756Y-6105956D02*
X18856756Y-6035244D01*
X18786044Y-6035244D01*
X18786044Y-6105956D01*
X18856756Y-6105956D01*
X18856756Y-6359956D02*
X18856756Y-6289244D01*
X18786044Y-6289244D01*
X18786044Y-6359956D01*
X18856756Y-6359956D01*
X18484060Y-12113260D02*
X18539060Y-12058260D01*
X18484060Y-12003260D01*
X18429060Y-12058260D01*
X18484060Y-12113260D01*
X18484060Y-12763260D02*
X18539060Y-12708260D01*
X18484060Y-12653260D01*
X18429060Y-12708260D01*
X18484060Y-12763260D01*
X18934060Y-12113260D02*
X18989060Y-12058260D01*
X18934060Y-12003260D01*
X18879060Y-12058260D01*
X18934060Y-12113260D01*
X18934060Y-12763260D02*
X18989060Y-12708260D01*
X18934060Y-12653260D01*
X18879060Y-12708260D01*
X18934060Y-12763260D01*
X17095400Y-8625000D02*
X17245400Y-8775000D01*
X17245400Y-8625000D02*
X17095400Y-8775000D01*
X17245400Y-8700000D02*
G75*
G03X17245400Y-8700000I-75000J0D01*
G01*
X19144400Y-8625000D02*
X19294400Y-8775000D01*
X19294400Y-8625000D02*
X19144400Y-8775000D01*
X19294400Y-8700000D02*
G75*
G03X19294400Y-8700000I-75000J0D01*
G01*
X10310400Y-5938800D02*
X10630400Y-6258800D01*
X10630400Y-5938800D02*
X10310400Y-6258800D01*
X10470400Y-5938800D02*
X10470400Y-6258800D01*
X10310400Y-6098800D02*
X10630400Y-6098800D01*
X19310400Y-5938800D02*
X19630400Y-6258800D01*
X19630400Y-5938800D02*
X19310400Y-6258800D01*
X19470400Y-5938800D02*
X19470400Y-6258800D01*
X19310400Y-6098800D02*
X19630400Y-6098800D01*
X10310400Y-12438800D02*
X10630400Y-12758800D01*
X10630400Y-12438800D02*
X10310400Y-12758800D01*
X10470400Y-12438800D02*
X10470400Y-12758800D01*
X10310400Y-12598800D02*
X10630400Y-12598800D01*
X19310400Y-12438800D02*
X19630400Y-12758800D01*
X19630400Y-12438800D02*
X19310400Y-12758800D01*
X19470400Y-12438800D02*
X19470400Y-12758800D01*
X19310400Y-12598800D02*
X19630400Y-12598800D01*
D12*
X10254328Y-13567014D02*
X10254328Y-13267014D01*
X10325757Y-13267014D01*
X10368614Y-13281300D01*
X10397186Y-13309871D01*
X10411471Y-13338443D01*
X10425757Y-13395586D01*
X10425757Y-13438443D01*
X10411471Y-13495586D01*
X10397186Y-13524157D01*
X10368614Y-13552729D01*
X10325757Y-13567014D01*
X10254328Y-13567014D01*
X10554328Y-13567014D02*
X10554328Y-13367014D01*
X10554328Y-13424157D02*
X10568614Y-13395586D01*
X10582900Y-13381300D01*
X10611471Y-13367014D01*
X10640043Y-13367014D01*
X10740043Y-13567014D02*
X10740043Y-13367014D01*
X10740043Y-13267014D02*
X10725757Y-13281300D01*
X10740043Y-13295586D01*
X10754328Y-13281300D01*
X10740043Y-13267014D01*
X10740043Y-13295586D01*
X10925757Y-13567014D02*
X10897186Y-13552729D01*
X10882900Y-13524157D01*
X10882900Y-13267014D01*
X11082900Y-13567014D02*
X11054328Y-13552729D01*
X11040043Y-13524157D01*
X11040043Y-13267014D01*
X11425757Y-13567014D02*
X11425757Y-13267014D01*
X11525757Y-13481300D01*
X11625757Y-13267014D01*
X11625757Y-13567014D01*
X11897186Y-13567014D02*
X11897186Y-13409871D01*
X11882900Y-13381300D01*
X11854328Y-13367014D01*
X11797186Y-13367014D01*
X11768614Y-13381300D01*
X11897186Y-13552729D02*
X11868614Y-13567014D01*
X11797186Y-13567014D01*
X11768614Y-13552729D01*
X11754328Y-13524157D01*
X11754328Y-13495586D01*
X11768614Y-13467014D01*
X11797186Y-13452729D01*
X11868614Y-13452729D01*
X11897186Y-13438443D01*
X12040043Y-13367014D02*
X12040043Y-13667014D01*
X12040043Y-13381300D02*
X12068614Y-13367014D01*
X12125757Y-13367014D01*
X12154328Y-13381300D01*
X12168614Y-13395586D01*
X12182900Y-13424157D01*
X12182900Y-13509871D01*
X12168614Y-13538443D01*
X12154328Y-13552729D01*
X12125757Y-13567014D01*
X12068614Y-13567014D01*
X12040043Y-13552729D01*
X12311471Y-13538443D02*
X12325757Y-13552729D01*
X12311471Y-13567014D01*
X12297186Y-13552729D01*
X12311471Y-13538443D01*
X12311471Y-13567014D01*
X12311471Y-13381300D02*
X12325757Y-13395586D01*
X12311471Y-13409871D01*
X12297186Y-13395586D01*
X12311471Y-13381300D01*
X12311471Y-13409871D01*
X9937900Y-14046300D02*
X9967900Y-14076300D01*
X9967900Y-14046300D02*
X9937900Y-14076300D01*
X10311471Y-13897014D02*
X10340043Y-13897014D01*
X10368614Y-13911300D01*
X10382900Y-13925586D01*
X10397186Y-13954157D01*
X10411471Y-14011300D01*
X10411471Y-14082729D01*
X10397186Y-14139871D01*
X10382900Y-14168443D01*
X10368614Y-14182729D01*
X10340043Y-14197014D01*
X10311471Y-14197014D01*
X10282900Y-14182729D01*
X10268614Y-14168443D01*
X10254328Y-14139871D01*
X10240043Y-14082729D01*
X10240043Y-14011300D01*
X10254328Y-13954157D01*
X10268614Y-13925586D01*
X10282900Y-13911300D01*
X10311471Y-13897014D01*
X10540043Y-14168443D02*
X10554328Y-14182729D01*
X10540043Y-14197014D01*
X10525757Y-14182729D01*
X10540043Y-14168443D01*
X10540043Y-14197014D01*
X10654328Y-13897014D02*
X10840043Y-13897014D01*
X10740043Y-14011300D01*
X10782900Y-14011300D01*
X10811471Y-14025586D01*
X10825757Y-14039871D01*
X10840043Y-14068443D01*
X10840043Y-14139871D01*
X10825757Y-14168443D01*
X10811471Y-14182729D01*
X10782900Y-14197014D01*
X10697186Y-14197014D01*
X10668614Y-14182729D01*
X10654328Y-14168443D01*
X11025757Y-13897014D02*
X11054328Y-13897014D01*
X11082900Y-13911300D01*
X11097186Y-13925586D01*
X11111471Y-13954157D01*
X11125757Y-14011300D01*
X11125757Y-14082729D01*
X11111471Y-14139871D01*
X11097186Y-14168443D01*
X11082900Y-14182729D01*
X11054328Y-14197014D01*
X11025757Y-14197014D01*
X10997186Y-14182729D01*
X10982900Y-14168443D01*
X10968614Y-14139871D01*
X10954328Y-14082729D01*
X10954328Y-14011300D01*
X10968614Y-13954157D01*
X10982900Y-13925586D01*
X10997186Y-13911300D01*
X11025757Y-13897014D01*
X11254328Y-14197014D02*
X11254328Y-13997014D01*
X11254328Y-14025586D02*
X11268614Y-14011300D01*
X11297186Y-13997014D01*
X11340043Y-13997014D01*
X11368614Y-14011300D01*
X11382900Y-14039871D01*
X11382900Y-14197014D01*
X11382900Y-14039871D02*
X11397186Y-14011300D01*
X11425757Y-13997014D01*
X11468614Y-13997014D01*
X11497186Y-14011300D01*
X11511471Y-14039871D01*
X11511471Y-14197014D01*
X11654328Y-14197014D02*
X11654328Y-13997014D01*
X11654328Y-14025586D02*
X11668614Y-14011300D01*
X11697186Y-13997014D01*
X11740043Y-13997014D01*
X11768614Y-14011300D01*
X11782900Y-14039871D01*
X11782900Y-14197014D01*
X11782900Y-14039871D02*
X11797186Y-14011300D01*
X11825757Y-13997014D01*
X11868614Y-13997014D01*
X11897186Y-14011300D01*
X11911471Y-14039871D01*
X11911471Y-14197014D01*
X12497186Y-13882729D02*
X12240043Y-14268443D01*
X12882900Y-13897014D02*
X12911471Y-13897014D01*
X12940043Y-13911300D01*
X12954328Y-13925586D01*
X12968614Y-13954157D01*
X12982900Y-14011300D01*
X12982900Y-14082729D01*
X12968614Y-14139871D01*
X12954328Y-14168443D01*
X12940043Y-14182729D01*
X12911471Y-14197014D01*
X12882900Y-14197014D01*
X12854328Y-14182729D01*
X12840043Y-14168443D01*
X12825757Y-14139871D01*
X12811471Y-14082729D01*
X12811471Y-14011300D01*
X12825757Y-13954157D01*
X12840043Y-13925586D01*
X12854328Y-13911300D01*
X12882900Y-13897014D01*
X13111471Y-14168443D02*
X13125757Y-14182729D01*
X13111471Y-14197014D01*
X13097186Y-14182729D01*
X13111471Y-14168443D01*
X13111471Y-14197014D01*
X13311471Y-13897014D02*
X13340043Y-13897014D01*
X13368614Y-13911300D01*
X13382900Y-13925586D01*
X13397186Y-13954157D01*
X13411471Y-14011300D01*
X13411471Y-14082729D01*
X13397186Y-14139871D01*
X13382900Y-14168443D01*
X13368614Y-14182729D01*
X13340043Y-14197014D01*
X13311471Y-14197014D01*
X13282900Y-14182729D01*
X13268614Y-14168443D01*
X13254328Y-14139871D01*
X13240043Y-14082729D01*
X13240043Y-14011300D01*
X13254328Y-13954157D01*
X13268614Y-13925586D01*
X13282900Y-13911300D01*
X13311471Y-13897014D01*
X13697186Y-14197014D02*
X13525757Y-14197014D01*
X13611471Y-14197014D02*
X13611471Y-13897014D01*
X13582900Y-13939871D01*
X13554328Y-13968443D01*
X13525757Y-13982729D01*
X13811471Y-13925586D02*
X13825757Y-13911300D01*
X13854328Y-13897014D01*
X13925757Y-13897014D01*
X13954328Y-13911300D01*
X13968614Y-13925586D01*
X13982900Y-13954157D01*
X13982900Y-13982729D01*
X13968614Y-14025586D01*
X13797186Y-14197014D01*
X13982900Y-14197014D01*
X14097186Y-13897014D02*
X14097186Y-13954157D01*
X14211471Y-13897014D02*
X14211471Y-13954157D01*
X14654328Y-14311300D02*
X14640043Y-14297014D01*
X14611471Y-14254157D01*
X14597186Y-14225586D01*
X14582900Y-14182729D01*
X14568614Y-14111300D01*
X14568614Y-14054157D01*
X14582900Y-13982729D01*
X14597186Y-13939871D01*
X14611471Y-13911300D01*
X14640043Y-13868443D01*
X14654328Y-13854157D01*
X14754328Y-13925586D02*
X14768614Y-13911300D01*
X14797186Y-13897014D01*
X14868614Y-13897014D01*
X14897186Y-13911300D01*
X14911471Y-13925586D01*
X14925757Y-13954157D01*
X14925757Y-13982729D01*
X14911471Y-14025586D01*
X14740043Y-14197014D01*
X14925757Y-14197014D01*
X15182900Y-13997014D02*
X15182900Y-14197014D01*
X15111471Y-13882729D02*
X15040043Y-14097014D01*
X15225757Y-14097014D01*
X15497186Y-14197014D02*
X15325757Y-14197014D01*
X15411471Y-14197014D02*
X15411471Y-13897014D01*
X15382900Y-13939871D01*
X15354328Y-13968443D01*
X15325757Y-13982729D01*
X15854328Y-14197014D02*
X15854328Y-13897014D01*
X15982900Y-14197014D02*
X15982900Y-14039871D01*
X15968614Y-14011300D01*
X15940043Y-13997014D01*
X15897186Y-13997014D01*
X15868614Y-14011300D01*
X15854328Y-14025586D01*
X16168614Y-14197014D02*
X16140043Y-14182729D01*
X16125757Y-14168443D01*
X16111471Y-14139871D01*
X16111471Y-14054157D01*
X16125757Y-14025586D01*
X16140043Y-14011300D01*
X16168614Y-13997014D01*
X16211471Y-13997014D01*
X16240043Y-14011300D01*
X16254328Y-14025586D01*
X16268614Y-14054157D01*
X16268614Y-14139871D01*
X16254328Y-14168443D01*
X16240043Y-14182729D01*
X16211471Y-14197014D01*
X16168614Y-14197014D01*
X16440043Y-14197014D02*
X16411471Y-14182729D01*
X16397186Y-14154157D01*
X16397186Y-13897014D01*
X16668614Y-14182729D02*
X16640043Y-14197014D01*
X16582900Y-14197014D01*
X16554328Y-14182729D01*
X16540043Y-14154157D01*
X16540043Y-14039871D01*
X16554328Y-14011300D01*
X16582900Y-13997014D01*
X16640043Y-13997014D01*
X16668614Y-14011300D01*
X16682900Y-14039871D01*
X16682900Y-14068443D01*
X16540043Y-14097014D01*
X16797186Y-14182729D02*
X16825757Y-14197014D01*
X16882900Y-14197014D01*
X16911471Y-14182729D01*
X16925757Y-14154157D01*
X16925757Y-14139871D01*
X16911471Y-14111300D01*
X16882900Y-14097014D01*
X16840043Y-14097014D01*
X16811471Y-14082729D01*
X16797186Y-14054157D01*
X16797186Y-14039871D01*
X16811471Y-14011300D01*
X16840043Y-13997014D01*
X16882900Y-13997014D01*
X16911471Y-14011300D01*
X17025757Y-14311300D02*
X17040043Y-14297014D01*
X17068614Y-14254157D01*
X17082900Y-14225586D01*
X17097186Y-14182729D01*
X17111471Y-14111300D01*
X17111471Y-14054157D01*
X17097186Y-13982729D01*
X17082900Y-13939871D01*
X17068614Y-13911300D01*
X17040043Y-13868443D01*
X17025757Y-13854157D01*
X9967900Y-14457300D02*
G75*
G03X9967900Y-14457300I-20000J0D01*
G01*
X10311471Y-14293014D02*
X10340043Y-14293014D01*
X10368614Y-14307300D01*
X10382900Y-14321586D01*
X10397186Y-14350157D01*
X10411471Y-14407300D01*
X10411471Y-14478729D01*
X10397186Y-14535871D01*
X10382900Y-14564443D01*
X10368614Y-14578729D01*
X10340043Y-14593014D01*
X10311471Y-14593014D01*
X10282900Y-14578729D01*
X10268614Y-14564443D01*
X10254328Y-14535871D01*
X10240043Y-14478729D01*
X10240043Y-14407300D01*
X10254328Y-14350157D01*
X10268614Y-14321586D01*
X10282900Y-14307300D01*
X10311471Y-14293014D01*
X10540043Y-14564443D02*
X10554328Y-14578729D01*
X10540043Y-14593014D01*
X10525757Y-14578729D01*
X10540043Y-14564443D01*
X10540043Y-14593014D01*
X10811471Y-14393014D02*
X10811471Y-14593014D01*
X10740043Y-14278729D02*
X10668614Y-14493014D01*
X10854328Y-14493014D01*
X11025757Y-14293014D02*
X11054328Y-14293014D01*
X11082900Y-14307300D01*
X11097186Y-14321586D01*
X11111471Y-14350157D01*
X11125757Y-14407300D01*
X11125757Y-14478729D01*
X11111471Y-14535871D01*
X11097186Y-14564443D01*
X11082900Y-14578729D01*
X11054328Y-14593014D01*
X11025757Y-14593014D01*
X10997186Y-14578729D01*
X10982900Y-14564443D01*
X10968614Y-14535871D01*
X10954328Y-14478729D01*
X10954328Y-14407300D01*
X10968614Y-14350157D01*
X10982900Y-14321586D01*
X10997186Y-14307300D01*
X11025757Y-14293014D01*
X11254328Y-14593014D02*
X11254328Y-14393014D01*
X11254328Y-14421586D02*
X11268614Y-14407300D01*
X11297186Y-14393014D01*
X11340043Y-14393014D01*
X11368614Y-14407300D01*
X11382900Y-14435871D01*
X11382900Y-14593014D01*
X11382900Y-14435871D02*
X11397186Y-14407300D01*
X11425757Y-14393014D01*
X11468614Y-14393014D01*
X11497186Y-14407300D01*
X11511471Y-14435871D01*
X11511471Y-14593014D01*
X11654328Y-14593014D02*
X11654328Y-14393014D01*
X11654328Y-14421586D02*
X11668614Y-14407300D01*
X11697186Y-14393014D01*
X11740043Y-14393014D01*
X11768614Y-14407300D01*
X11782900Y-14435871D01*
X11782900Y-14593014D01*
X11782900Y-14435871D02*
X11797186Y-14407300D01*
X11825757Y-14393014D01*
X11868614Y-14393014D01*
X11897186Y-14407300D01*
X11911471Y-14435871D01*
X11911471Y-14593014D01*
X12497186Y-14278729D02*
X12240043Y-14664443D01*
X12882900Y-14293014D02*
X12911471Y-14293014D01*
X12940043Y-14307300D01*
X12954328Y-14321586D01*
X12968614Y-14350157D01*
X12982900Y-14407300D01*
X12982900Y-14478729D01*
X12968614Y-14535871D01*
X12954328Y-14564443D01*
X12940043Y-14578729D01*
X12911471Y-14593014D01*
X12882900Y-14593014D01*
X12854328Y-14578729D01*
X12840043Y-14564443D01*
X12825757Y-14535871D01*
X12811471Y-14478729D01*
X12811471Y-14407300D01*
X12825757Y-14350157D01*
X12840043Y-14321586D01*
X12854328Y-14307300D01*
X12882900Y-14293014D01*
X13111471Y-14564443D02*
X13125757Y-14578729D01*
X13111471Y-14593014D01*
X13097186Y-14578729D01*
X13111471Y-14564443D01*
X13111471Y-14593014D01*
X13311471Y-14293014D02*
X13340043Y-14293014D01*
X13368614Y-14307300D01*
X13382900Y-14321586D01*
X13397186Y-14350157D01*
X13411471Y-14407300D01*
X13411471Y-14478729D01*
X13397186Y-14535871D01*
X13382900Y-14564443D01*
X13368614Y-14578729D01*
X13340043Y-14593014D01*
X13311471Y-14593014D01*
X13282900Y-14578729D01*
X13268614Y-14564443D01*
X13254328Y-14535871D01*
X13240043Y-14478729D01*
X13240043Y-14407300D01*
X13254328Y-14350157D01*
X13268614Y-14321586D01*
X13282900Y-14307300D01*
X13311471Y-14293014D01*
X13697186Y-14593014D02*
X13525757Y-14593014D01*
X13611471Y-14593014D02*
X13611471Y-14293014D01*
X13582900Y-14335871D01*
X13554328Y-14364443D01*
X13525757Y-14378729D01*
X13954328Y-14293014D02*
X13897186Y-14293014D01*
X13868614Y-14307300D01*
X13854328Y-14321586D01*
X13825757Y-14364443D01*
X13811471Y-14421586D01*
X13811471Y-14535871D01*
X13825757Y-14564443D01*
X13840043Y-14578729D01*
X13868614Y-14593014D01*
X13925757Y-14593014D01*
X13954328Y-14578729D01*
X13968614Y-14564443D01*
X13982900Y-14535871D01*
X13982900Y-14464443D01*
X13968614Y-14435871D01*
X13954328Y-14421586D01*
X13925757Y-14407300D01*
X13868614Y-14407300D01*
X13840043Y-14421586D01*
X13825757Y-14435871D01*
X13811471Y-14464443D01*
X14097186Y-14293014D02*
X14097186Y-14350157D01*
X14211471Y-14293014D02*
X14211471Y-14350157D01*
X14654328Y-14707300D02*
X14640043Y-14693014D01*
X14611471Y-14650157D01*
X14597186Y-14621586D01*
X14582900Y-14578729D01*
X14568614Y-14507300D01*
X14568614Y-14450157D01*
X14582900Y-14378729D01*
X14597186Y-14335871D01*
X14611471Y-14307300D01*
X14640043Y-14264443D01*
X14654328Y-14250157D01*
X14925757Y-14593014D02*
X14754328Y-14593014D01*
X14840043Y-14593014D02*
X14840043Y-14293014D01*
X14811471Y-14335871D01*
X14782900Y-14364443D01*
X14754328Y-14378729D01*
X15182900Y-14393014D02*
X15182900Y-14593014D01*
X15111471Y-14278729D02*
X15040043Y-14493014D01*
X15225757Y-14493014D01*
X15568614Y-14593014D02*
X15568614Y-14293014D01*
X15697186Y-14593014D02*
X15697186Y-14435871D01*
X15682900Y-14407300D01*
X15654328Y-14393014D01*
X15611471Y-14393014D01*
X15582900Y-14407300D01*
X15568614Y-14421586D01*
X15882900Y-14593014D02*
X15854328Y-14578729D01*
X15840043Y-14564443D01*
X15825757Y-14535871D01*
X15825757Y-14450157D01*
X15840043Y-14421586D01*
X15854328Y-14407300D01*
X15882900Y-14393014D01*
X15925757Y-14393014D01*
X15954328Y-14407300D01*
X15968614Y-14421586D01*
X15982900Y-14450157D01*
X15982900Y-14535871D01*
X15968614Y-14564443D01*
X15954328Y-14578729D01*
X15925757Y-14593014D01*
X15882900Y-14593014D01*
X16154328Y-14593014D02*
X16125757Y-14578729D01*
X16111471Y-14550157D01*
X16111471Y-14293014D01*
X16382900Y-14578729D02*
X16354328Y-14593014D01*
X16297186Y-14593014D01*
X16268614Y-14578729D01*
X16254328Y-14550157D01*
X16254328Y-14435871D01*
X16268614Y-14407300D01*
X16297186Y-14393014D01*
X16354328Y-14393014D01*
X16382900Y-14407300D01*
X16397186Y-14435871D01*
X16397186Y-14464443D01*
X16254328Y-14493014D01*
X16511471Y-14578729D02*
X16540043Y-14593014D01*
X16597186Y-14593014D01*
X16625757Y-14578729D01*
X16640043Y-14550157D01*
X16640043Y-14535871D01*
X16625757Y-14507300D01*
X16597186Y-14493014D01*
X16554328Y-14493014D01*
X16525757Y-14478729D01*
X16511471Y-14450157D01*
X16511471Y-14435871D01*
X16525757Y-14407300D01*
X16554328Y-14393014D01*
X16597186Y-14393014D01*
X16625757Y-14407300D01*
X16740043Y-14707300D02*
X16754328Y-14693014D01*
X16782900Y-14650157D01*
X16797186Y-14621586D01*
X16811471Y-14578729D01*
X16825757Y-14507300D01*
X16825757Y-14450157D01*
X16811471Y-14378729D01*
X16797186Y-14335871D01*
X16782900Y-14307300D01*
X16754328Y-14264443D01*
X16740043Y-14250157D01*
X9929800Y-14815200D02*
X9929800Y-14891400D01*
X9891700Y-14853300D02*
X9967900Y-14853300D01*
X10311471Y-14689014D02*
X10340043Y-14689014D01*
X10368614Y-14703300D01*
X10382900Y-14717586D01*
X10397186Y-14746157D01*
X10411471Y-14803300D01*
X10411471Y-14874729D01*
X10397186Y-14931871D01*
X10382900Y-14960443D01*
X10368614Y-14974729D01*
X10340043Y-14989014D01*
X10311471Y-14989014D01*
X10282900Y-14974729D01*
X10268614Y-14960443D01*
X10254328Y-14931871D01*
X10240043Y-14874729D01*
X10240043Y-14803300D01*
X10254328Y-14746157D01*
X10268614Y-14717586D01*
X10282900Y-14703300D01*
X10311471Y-14689014D01*
X10540043Y-14960443D02*
X10554328Y-14974729D01*
X10540043Y-14989014D01*
X10525757Y-14974729D01*
X10540043Y-14960443D01*
X10540043Y-14989014D01*
X10654328Y-14689014D02*
X10854328Y-14689014D01*
X10725757Y-14989014D01*
X11097186Y-14689014D02*
X11040043Y-14689014D01*
X11011471Y-14703300D01*
X10997186Y-14717586D01*
X10968614Y-14760443D01*
X10954328Y-14817586D01*
X10954328Y-14931871D01*
X10968614Y-14960443D01*
X10982900Y-14974729D01*
X11011471Y-14989014D01*
X11068614Y-14989014D01*
X11097186Y-14974729D01*
X11111471Y-14960443D01*
X11125757Y-14931871D01*
X11125757Y-14860443D01*
X11111471Y-14831871D01*
X11097186Y-14817586D01*
X11068614Y-14803300D01*
X11011471Y-14803300D01*
X10982900Y-14817586D01*
X10968614Y-14831871D01*
X10954328Y-14860443D01*
X11254328Y-14989014D02*
X11254328Y-14789014D01*
X11254328Y-14817586D02*
X11268614Y-14803300D01*
X11297186Y-14789014D01*
X11340043Y-14789014D01*
X11368614Y-14803300D01*
X11382900Y-14831871D01*
X11382900Y-14989014D01*
X11382900Y-14831871D02*
X11397186Y-14803300D01*
X11425757Y-14789014D01*
X11468614Y-14789014D01*
X11497186Y-14803300D01*
X11511471Y-14831871D01*
X11511471Y-14989014D01*
X11654328Y-14989014D02*
X11654328Y-14789014D01*
X11654328Y-14817586D02*
X11668614Y-14803300D01*
X11697186Y-14789014D01*
X11740043Y-14789014D01*
X11768614Y-14803300D01*
X11782900Y-14831871D01*
X11782900Y-14989014D01*
X11782900Y-14831871D02*
X11797186Y-14803300D01*
X11825757Y-14789014D01*
X11868614Y-14789014D01*
X11897186Y-14803300D01*
X11911471Y-14831871D01*
X11911471Y-14989014D01*
X12497186Y-14674729D02*
X12240043Y-15060443D01*
X12882900Y-14689014D02*
X12911471Y-14689014D01*
X12940043Y-14703300D01*
X12954328Y-14717586D01*
X12968614Y-14746157D01*
X12982900Y-14803300D01*
X12982900Y-14874729D01*
X12968614Y-14931871D01*
X12954328Y-14960443D01*
X12940043Y-14974729D01*
X12911471Y-14989014D01*
X12882900Y-14989014D01*
X12854328Y-14974729D01*
X12840043Y-14960443D01*
X12825757Y-14931871D01*
X12811471Y-14874729D01*
X12811471Y-14803300D01*
X12825757Y-14746157D01*
X12840043Y-14717586D01*
X12854328Y-14703300D01*
X12882900Y-14689014D01*
X13111471Y-14960443D02*
X13125757Y-14974729D01*
X13111471Y-14989014D01*
X13097186Y-14974729D01*
X13111471Y-14960443D01*
X13111471Y-14989014D01*
X13311471Y-14689014D02*
X13340043Y-14689014D01*
X13368614Y-14703300D01*
X13382900Y-14717586D01*
X13397186Y-14746157D01*
X13411471Y-14803300D01*
X13411471Y-14874729D01*
X13397186Y-14931871D01*
X13382900Y-14960443D01*
X13368614Y-14974729D01*
X13340043Y-14989014D01*
X13311471Y-14989014D01*
X13282900Y-14974729D01*
X13268614Y-14960443D01*
X13254328Y-14931871D01*
X13240043Y-14874729D01*
X13240043Y-14803300D01*
X13254328Y-14746157D01*
X13268614Y-14717586D01*
X13282900Y-14703300D01*
X13311471Y-14689014D01*
X13511471Y-14689014D02*
X13697186Y-14689014D01*
X13597186Y-14803300D01*
X13640043Y-14803300D01*
X13668614Y-14817586D01*
X13682900Y-14831871D01*
X13697186Y-14860443D01*
X13697186Y-14931871D01*
X13682900Y-14960443D01*
X13668614Y-14974729D01*
X13640043Y-14989014D01*
X13554328Y-14989014D01*
X13525757Y-14974729D01*
X13511471Y-14960443D01*
X13882900Y-14689014D02*
X13911471Y-14689014D01*
X13940043Y-14703300D01*
X13954328Y-14717586D01*
X13968614Y-14746157D01*
X13982900Y-14803300D01*
X13982900Y-14874729D01*
X13968614Y-14931871D01*
X13954328Y-14960443D01*
X13940043Y-14974729D01*
X13911471Y-14989014D01*
X13882900Y-14989014D01*
X13854328Y-14974729D01*
X13840043Y-14960443D01*
X13825757Y-14931871D01*
X13811471Y-14874729D01*
X13811471Y-14803300D01*
X13825757Y-14746157D01*
X13840043Y-14717586D01*
X13854328Y-14703300D01*
X13882900Y-14689014D01*
X14097186Y-14689014D02*
X14097186Y-14746157D01*
X14211471Y-14689014D02*
X14211471Y-14746157D01*
X14654328Y-15103300D02*
X14640043Y-15089014D01*
X14611471Y-15046157D01*
X14597186Y-15017586D01*
X14582900Y-14974729D01*
X14568614Y-14903300D01*
X14568614Y-14846157D01*
X14582900Y-14774729D01*
X14597186Y-14731871D01*
X14611471Y-14703300D01*
X14640043Y-14660443D01*
X14654328Y-14646157D01*
X14811471Y-14817586D02*
X14782900Y-14803300D01*
X14768614Y-14789014D01*
X14754328Y-14760443D01*
X14754328Y-14746157D01*
X14768614Y-14717586D01*
X14782900Y-14703300D01*
X14811471Y-14689014D01*
X14868614Y-14689014D01*
X14897186Y-14703300D01*
X14911471Y-14717586D01*
X14925757Y-14746157D01*
X14925757Y-14760443D01*
X14911471Y-14789014D01*
X14897186Y-14803300D01*
X14868614Y-14817586D01*
X14811471Y-14817586D01*
X14782900Y-14831871D01*
X14768614Y-14846157D01*
X14754328Y-14874729D01*
X14754328Y-14931871D01*
X14768614Y-14960443D01*
X14782900Y-14974729D01*
X14811471Y-14989014D01*
X14868614Y-14989014D01*
X14897186Y-14974729D01*
X14911471Y-14960443D01*
X14925757Y-14931871D01*
X14925757Y-14874729D01*
X14911471Y-14846157D01*
X14897186Y-14831871D01*
X14868614Y-14817586D01*
X15282900Y-14989014D02*
X15282900Y-14689014D01*
X15411471Y-14989014D02*
X15411471Y-14831871D01*
X15397186Y-14803300D01*
X15368614Y-14789014D01*
X15325757Y-14789014D01*
X15297186Y-14803300D01*
X15282900Y-14817586D01*
X15597186Y-14989014D02*
X15568614Y-14974729D01*
X15554328Y-14960443D01*
X15540043Y-14931871D01*
X15540043Y-14846157D01*
X15554328Y-14817586D01*
X15568614Y-14803300D01*
X15597186Y-14789014D01*
X15640043Y-14789014D01*
X15668614Y-14803300D01*
X15682900Y-14817586D01*
X15697186Y-14846157D01*
X15697186Y-14931871D01*
X15682900Y-14960443D01*
X15668614Y-14974729D01*
X15640043Y-14989014D01*
X15597186Y-14989014D01*
X15868614Y-14989014D02*
X15840043Y-14974729D01*
X15825757Y-14946157D01*
X15825757Y-14689014D01*
X16097186Y-14974729D02*
X16068614Y-14989014D01*
X16011471Y-14989014D01*
X15982900Y-14974729D01*
X15968614Y-14946157D01*
X15968614Y-14831871D01*
X15982900Y-14803300D01*
X16011471Y-14789014D01*
X16068614Y-14789014D01*
X16097186Y-14803300D01*
X16111471Y-14831871D01*
X16111471Y-14860443D01*
X15968614Y-14889014D01*
X16225757Y-14974729D02*
X16254328Y-14989014D01*
X16311471Y-14989014D01*
X16340043Y-14974729D01*
X16354328Y-14946157D01*
X16354328Y-14931871D01*
X16340043Y-14903300D01*
X16311471Y-14889014D01*
X16268614Y-14889014D01*
X16240043Y-14874729D01*
X16225757Y-14846157D01*
X16225757Y-14831871D01*
X16240043Y-14803300D01*
X16268614Y-14789014D01*
X16311471Y-14789014D01*
X16340043Y-14803300D01*
X16454328Y-15103300D02*
X16468614Y-15089014D01*
X16497186Y-15046157D01*
X16511471Y-15017586D01*
X16525757Y-14974729D01*
X16540043Y-14903300D01*
X16540043Y-14846157D01*
X16525757Y-14774729D01*
X16511471Y-14731871D01*
X16497186Y-14703300D01*
X16468614Y-14660443D01*
X16454328Y-14646157D01*
X9953256Y-15284656D02*
X9953256Y-15213944D01*
X9882544Y-15213944D01*
X9882544Y-15284656D01*
X9953256Y-15284656D01*
X10411471Y-15385014D02*
X10240043Y-15385014D01*
X10325757Y-15385014D02*
X10325757Y-15085014D01*
X10297186Y-15127871D01*
X10268614Y-15156443D01*
X10240043Y-15170729D01*
X10540043Y-15356443D02*
X10554328Y-15370729D01*
X10540043Y-15385014D01*
X10525757Y-15370729D01*
X10540043Y-15356443D01*
X10540043Y-15385014D01*
X10740043Y-15085014D02*
X10768614Y-15085014D01*
X10797186Y-15099300D01*
X10811471Y-15113586D01*
X10825757Y-15142157D01*
X10840043Y-15199300D01*
X10840043Y-15270729D01*
X10825757Y-15327871D01*
X10811471Y-15356443D01*
X10797186Y-15370729D01*
X10768614Y-15385014D01*
X10740043Y-15385014D01*
X10711471Y-15370729D01*
X10697186Y-15356443D01*
X10682900Y-15327871D01*
X10668614Y-15270729D01*
X10668614Y-15199300D01*
X10682900Y-15142157D01*
X10697186Y-15113586D01*
X10711471Y-15099300D01*
X10740043Y-15085014D01*
X11025757Y-15085014D02*
X11054328Y-15085014D01*
X11082900Y-15099300D01*
X11097186Y-15113586D01*
X11111471Y-15142157D01*
X11125757Y-15199300D01*
X11125757Y-15270729D01*
X11111471Y-15327871D01*
X11097186Y-15356443D01*
X11082900Y-15370729D01*
X11054328Y-15385014D01*
X11025757Y-15385014D01*
X10997186Y-15370729D01*
X10982900Y-15356443D01*
X10968614Y-15327871D01*
X10954328Y-15270729D01*
X10954328Y-15199300D01*
X10968614Y-15142157D01*
X10982900Y-15113586D01*
X10997186Y-15099300D01*
X11025757Y-15085014D01*
X11254328Y-15385014D02*
X11254328Y-15185014D01*
X11254328Y-15213586D02*
X11268614Y-15199300D01*
X11297186Y-15185014D01*
X11340043Y-15185014D01*
X11368614Y-15199300D01*
X11382900Y-15227871D01*
X11382900Y-15385014D01*
X11382900Y-15227871D02*
X11397186Y-15199300D01*
X11425757Y-15185014D01*
X11468614Y-15185014D01*
X11497186Y-15199300D01*
X11511471Y-15227871D01*
X11511471Y-15385014D01*
X11654328Y-15385014D02*
X11654328Y-15185014D01*
X11654328Y-15213586D02*
X11668614Y-15199300D01*
X11697186Y-15185014D01*
X11740043Y-15185014D01*
X11768614Y-15199300D01*
X11782900Y-15227871D01*
X11782900Y-15385014D01*
X11782900Y-15227871D02*
X11797186Y-15199300D01*
X11825757Y-15185014D01*
X11868614Y-15185014D01*
X11897186Y-15199300D01*
X11911471Y-15227871D01*
X11911471Y-15385014D01*
X12497186Y-15070729D02*
X12240043Y-15456443D01*
X12882900Y-15085014D02*
X12911471Y-15085014D01*
X12940043Y-15099300D01*
X12954328Y-15113586D01*
X12968614Y-15142157D01*
X12982900Y-15199300D01*
X12982900Y-15270729D01*
X12968614Y-15327871D01*
X12954328Y-15356443D01*
X12940043Y-15370729D01*
X12911471Y-15385014D01*
X12882900Y-15385014D01*
X12854328Y-15370729D01*
X12840043Y-15356443D01*
X12825757Y-15327871D01*
X12811471Y-15270729D01*
X12811471Y-15199300D01*
X12825757Y-15142157D01*
X12840043Y-15113586D01*
X12854328Y-15099300D01*
X12882900Y-15085014D01*
X13111471Y-15356443D02*
X13125757Y-15370729D01*
X13111471Y-15385014D01*
X13097186Y-15370729D01*
X13111471Y-15356443D01*
X13111471Y-15385014D01*
X13311471Y-15085014D02*
X13340043Y-15085014D01*
X13368614Y-15099300D01*
X13382900Y-15113586D01*
X13397186Y-15142157D01*
X13411471Y-15199300D01*
X13411471Y-15270729D01*
X13397186Y-15327871D01*
X13382900Y-15356443D01*
X13368614Y-15370729D01*
X13340043Y-15385014D01*
X13311471Y-15385014D01*
X13282900Y-15370729D01*
X13268614Y-15356443D01*
X13254328Y-15327871D01*
X13240043Y-15270729D01*
X13240043Y-15199300D01*
X13254328Y-15142157D01*
X13268614Y-15113586D01*
X13282900Y-15099300D01*
X13311471Y-15085014D01*
X13511471Y-15085014D02*
X13697186Y-15085014D01*
X13597186Y-15199300D01*
X13640043Y-15199300D01*
X13668614Y-15213586D01*
X13682900Y-15227871D01*
X13697186Y-15256443D01*
X13697186Y-15327871D01*
X13682900Y-15356443D01*
X13668614Y-15370729D01*
X13640043Y-15385014D01*
X13554328Y-15385014D01*
X13525757Y-15370729D01*
X13511471Y-15356443D01*
X13840043Y-15385014D02*
X13897186Y-15385014D01*
X13925757Y-15370729D01*
X13940043Y-15356443D01*
X13968614Y-15313586D01*
X13982900Y-15256443D01*
X13982900Y-15142157D01*
X13968614Y-15113586D01*
X13954328Y-15099300D01*
X13925757Y-15085014D01*
X13868614Y-15085014D01*
X13840043Y-15099300D01*
X13825757Y-15113586D01*
X13811471Y-15142157D01*
X13811471Y-15213586D01*
X13825757Y-15242157D01*
X13840043Y-15256443D01*
X13868614Y-15270729D01*
X13925757Y-15270729D01*
X13954328Y-15256443D01*
X13968614Y-15242157D01*
X13982900Y-15213586D01*
X14097186Y-15085014D02*
X14097186Y-15142157D01*
X14211471Y-15085014D02*
X14211471Y-15142157D01*
X14654328Y-15499300D02*
X14640043Y-15485014D01*
X14611471Y-15442157D01*
X14597186Y-15413586D01*
X14582900Y-15370729D01*
X14568614Y-15299300D01*
X14568614Y-15242157D01*
X14582900Y-15170729D01*
X14597186Y-15127871D01*
X14611471Y-15099300D01*
X14640043Y-15056443D01*
X14654328Y-15042157D01*
X14811471Y-15213586D02*
X14782900Y-15199300D01*
X14768614Y-15185014D01*
X14754328Y-15156443D01*
X14754328Y-15142157D01*
X14768614Y-15113586D01*
X14782900Y-15099300D01*
X14811471Y-15085014D01*
X14868614Y-15085014D01*
X14897186Y-15099300D01*
X14911471Y-15113586D01*
X14925757Y-15142157D01*
X14925757Y-15156443D01*
X14911471Y-15185014D01*
X14897186Y-15199300D01*
X14868614Y-15213586D01*
X14811471Y-15213586D01*
X14782900Y-15227871D01*
X14768614Y-15242157D01*
X14754328Y-15270729D01*
X14754328Y-15327871D01*
X14768614Y-15356443D01*
X14782900Y-15370729D01*
X14811471Y-15385014D01*
X14868614Y-15385014D01*
X14897186Y-15370729D01*
X14911471Y-15356443D01*
X14925757Y-15327871D01*
X14925757Y-15270729D01*
X14911471Y-15242157D01*
X14897186Y-15227871D01*
X14868614Y-15213586D01*
X15097186Y-15213586D02*
X15068614Y-15199300D01*
X15054328Y-15185014D01*
X15040043Y-15156443D01*
X15040043Y-15142157D01*
X15054328Y-15113586D01*
X15068614Y-15099300D01*
X15097186Y-15085014D01*
X15154328Y-15085014D01*
X15182900Y-15099300D01*
X15197186Y-15113586D01*
X15211471Y-15142157D01*
X15211471Y-15156443D01*
X15197186Y-15185014D01*
X15182900Y-15199300D01*
X15154328Y-15213586D01*
X15097186Y-15213586D01*
X15068614Y-15227871D01*
X15054328Y-15242157D01*
X15040043Y-15270729D01*
X15040043Y-15327871D01*
X15054328Y-15356443D01*
X15068614Y-15370729D01*
X15097186Y-15385014D01*
X15154328Y-15385014D01*
X15182900Y-15370729D01*
X15197186Y-15356443D01*
X15211471Y-15327871D01*
X15211471Y-15270729D01*
X15197186Y-15242157D01*
X15182900Y-15227871D01*
X15154328Y-15213586D01*
X15568614Y-15385014D02*
X15568614Y-15085014D01*
X15697186Y-15385014D02*
X15697186Y-15227871D01*
X15682900Y-15199300D01*
X15654328Y-15185014D01*
X15611471Y-15185014D01*
X15582900Y-15199300D01*
X15568614Y-15213586D01*
X15882900Y-15385014D02*
X15854328Y-15370729D01*
X15840043Y-15356443D01*
X15825757Y-15327871D01*
X15825757Y-15242157D01*
X15840043Y-15213586D01*
X15854328Y-15199300D01*
X15882900Y-15185014D01*
X15925757Y-15185014D01*
X15954328Y-15199300D01*
X15968614Y-15213586D01*
X15982900Y-15242157D01*
X15982900Y-15327871D01*
X15968614Y-15356443D01*
X15954328Y-15370729D01*
X15925757Y-15385014D01*
X15882900Y-15385014D01*
X16154328Y-15385014D02*
X16125757Y-15370729D01*
X16111471Y-15342157D01*
X16111471Y-15085014D01*
X16382900Y-15370729D02*
X16354328Y-15385014D01*
X16297186Y-15385014D01*
X16268614Y-15370729D01*
X16254328Y-15342157D01*
X16254328Y-15227871D01*
X16268614Y-15199300D01*
X16297186Y-15185014D01*
X16354328Y-15185014D01*
X16382900Y-15199300D01*
X16397186Y-15227871D01*
X16397186Y-15256443D01*
X16254328Y-15285014D01*
X16511471Y-15370729D02*
X16540043Y-15385014D01*
X16597186Y-15385014D01*
X16625757Y-15370729D01*
X16640043Y-15342157D01*
X16640043Y-15327871D01*
X16625757Y-15299300D01*
X16597186Y-15285014D01*
X16554328Y-15285014D01*
X16525757Y-15270729D01*
X16511471Y-15242157D01*
X16511471Y-15227871D01*
X16525757Y-15199300D01*
X16554328Y-15185014D01*
X16597186Y-15185014D01*
X16625757Y-15199300D01*
X16740043Y-15499300D02*
X16754328Y-15485014D01*
X16782900Y-15442157D01*
X16797186Y-15413586D01*
X16811471Y-15370729D01*
X16825757Y-15299300D01*
X16825757Y-15242157D01*
X16811471Y-15170729D01*
X16797186Y-15127871D01*
X16782900Y-15099300D01*
X16754328Y-15056443D01*
X16740043Y-15042157D01*
X9912900Y-15700300D02*
X9967900Y-15645300D01*
X9912900Y-15590300D01*
X9857900Y-15645300D01*
X9912900Y-15700300D01*
X10411471Y-15781014D02*
X10240043Y-15781014D01*
X10325757Y-15781014D02*
X10325757Y-15481014D01*
X10297186Y-15523871D01*
X10268614Y-15552443D01*
X10240043Y-15566729D01*
X10540043Y-15752443D02*
X10554328Y-15766729D01*
X10540043Y-15781014D01*
X10525757Y-15766729D01*
X10540043Y-15752443D01*
X10540043Y-15781014D01*
X10840043Y-15781014D02*
X10668614Y-15781014D01*
X10754328Y-15781014D02*
X10754328Y-15481014D01*
X10725757Y-15523871D01*
X10697186Y-15552443D01*
X10668614Y-15566729D01*
X11025757Y-15481014D02*
X11054328Y-15481014D01*
X11082900Y-15495300D01*
X11097186Y-15509586D01*
X11111471Y-15538157D01*
X11125757Y-15595300D01*
X11125757Y-15666729D01*
X11111471Y-15723871D01*
X11097186Y-15752443D01*
X11082900Y-15766729D01*
X11054328Y-15781014D01*
X11025757Y-15781014D01*
X10997186Y-15766729D01*
X10982900Y-15752443D01*
X10968614Y-15723871D01*
X10954328Y-15666729D01*
X10954328Y-15595300D01*
X10968614Y-15538157D01*
X10982900Y-15509586D01*
X10997186Y-15495300D01*
X11025757Y-15481014D01*
X11254328Y-15781014D02*
X11254328Y-15581014D01*
X11254328Y-15609586D02*
X11268614Y-15595300D01*
X11297186Y-15581014D01*
X11340043Y-15581014D01*
X11368614Y-15595300D01*
X11382900Y-15623871D01*
X11382900Y-15781014D01*
X11382900Y-15623871D02*
X11397186Y-15595300D01*
X11425757Y-15581014D01*
X11468614Y-15581014D01*
X11497186Y-15595300D01*
X11511471Y-15623871D01*
X11511471Y-15781014D01*
X11654328Y-15781014D02*
X11654328Y-15581014D01*
X11654328Y-15609586D02*
X11668614Y-15595300D01*
X11697186Y-15581014D01*
X11740043Y-15581014D01*
X11768614Y-15595300D01*
X11782900Y-15623871D01*
X11782900Y-15781014D01*
X11782900Y-15623871D02*
X11797186Y-15595300D01*
X11825757Y-15581014D01*
X11868614Y-15581014D01*
X11897186Y-15595300D01*
X11911471Y-15623871D01*
X11911471Y-15781014D01*
X12497186Y-15466729D02*
X12240043Y-15852443D01*
X12882900Y-15481014D02*
X12911471Y-15481014D01*
X12940043Y-15495300D01*
X12954328Y-15509586D01*
X12968614Y-15538157D01*
X12982900Y-15595300D01*
X12982900Y-15666729D01*
X12968614Y-15723871D01*
X12954328Y-15752443D01*
X12940043Y-15766729D01*
X12911471Y-15781014D01*
X12882900Y-15781014D01*
X12854328Y-15766729D01*
X12840043Y-15752443D01*
X12825757Y-15723871D01*
X12811471Y-15666729D01*
X12811471Y-15595300D01*
X12825757Y-15538157D01*
X12840043Y-15509586D01*
X12854328Y-15495300D01*
X12882900Y-15481014D01*
X13111471Y-15752443D02*
X13125757Y-15766729D01*
X13111471Y-15781014D01*
X13097186Y-15766729D01*
X13111471Y-15752443D01*
X13111471Y-15781014D01*
X13311471Y-15481014D02*
X13340043Y-15481014D01*
X13368614Y-15495300D01*
X13382900Y-15509586D01*
X13397186Y-15538157D01*
X13411471Y-15595300D01*
X13411471Y-15666729D01*
X13397186Y-15723871D01*
X13382900Y-15752443D01*
X13368614Y-15766729D01*
X13340043Y-15781014D01*
X13311471Y-15781014D01*
X13282900Y-15766729D01*
X13268614Y-15752443D01*
X13254328Y-15723871D01*
X13240043Y-15666729D01*
X13240043Y-15595300D01*
X13254328Y-15538157D01*
X13268614Y-15509586D01*
X13282900Y-15495300D01*
X13311471Y-15481014D01*
X13668614Y-15581014D02*
X13668614Y-15781014D01*
X13597186Y-15466729D02*
X13525757Y-15681014D01*
X13711471Y-15681014D01*
X13797186Y-15481014D02*
X13982900Y-15481014D01*
X13882900Y-15595300D01*
X13925757Y-15595300D01*
X13954328Y-15609586D01*
X13968614Y-15623871D01*
X13982900Y-15652443D01*
X13982900Y-15723871D01*
X13968614Y-15752443D01*
X13954328Y-15766729D01*
X13925757Y-15781014D01*
X13840043Y-15781014D01*
X13811471Y-15766729D01*
X13797186Y-15752443D01*
X14097186Y-15481014D02*
X14097186Y-15538157D01*
X14211471Y-15481014D02*
X14211471Y-15538157D01*
X14654328Y-15895300D02*
X14640043Y-15881014D01*
X14611471Y-15838157D01*
X14597186Y-15809586D01*
X14582900Y-15766729D01*
X14568614Y-15695300D01*
X14568614Y-15638157D01*
X14582900Y-15566729D01*
X14597186Y-15523871D01*
X14611471Y-15495300D01*
X14640043Y-15452443D01*
X14654328Y-15438157D01*
X14897186Y-15581014D02*
X14897186Y-15781014D01*
X14825757Y-15466729D02*
X14754328Y-15681014D01*
X14940043Y-15681014D01*
X15282900Y-15781014D02*
X15282900Y-15481014D01*
X15411471Y-15781014D02*
X15411471Y-15623871D01*
X15397186Y-15595300D01*
X15368614Y-15581014D01*
X15325757Y-15581014D01*
X15297186Y-15595300D01*
X15282900Y-15609586D01*
X15597186Y-15781014D02*
X15568614Y-15766729D01*
X15554328Y-15752443D01*
X15540043Y-15723871D01*
X15540043Y-15638157D01*
X15554328Y-15609586D01*
X15568614Y-15595300D01*
X15597186Y-15581014D01*
X15640043Y-15581014D01*
X15668614Y-15595300D01*
X15682900Y-15609586D01*
X15697186Y-15638157D01*
X15697186Y-15723871D01*
X15682900Y-15752443D01*
X15668614Y-15766729D01*
X15640043Y-15781014D01*
X15597186Y-15781014D01*
X15868614Y-15781014D02*
X15840043Y-15766729D01*
X15825757Y-15738157D01*
X15825757Y-15481014D01*
X16097186Y-15766729D02*
X16068614Y-15781014D01*
X16011471Y-15781014D01*
X15982900Y-15766729D01*
X15968614Y-15738157D01*
X15968614Y-15623871D01*
X15982900Y-15595300D01*
X16011471Y-15581014D01*
X16068614Y-15581014D01*
X16097186Y-15595300D01*
X16111471Y-15623871D01*
X16111471Y-15652443D01*
X15968614Y-15681014D01*
X16225757Y-15766729D02*
X16254328Y-15781014D01*
X16311471Y-15781014D01*
X16340043Y-15766729D01*
X16354328Y-15738157D01*
X16354328Y-15723871D01*
X16340043Y-15695300D01*
X16311471Y-15681014D01*
X16268614Y-15681014D01*
X16240043Y-15666729D01*
X16225757Y-15638157D01*
X16225757Y-15623871D01*
X16240043Y-15595300D01*
X16268614Y-15581014D01*
X16311471Y-15581014D01*
X16340043Y-15595300D01*
X16454328Y-15895300D02*
X16468614Y-15881014D01*
X16497186Y-15838157D01*
X16511471Y-15809586D01*
X16525757Y-15766729D01*
X16540043Y-15695300D01*
X16540043Y-15638157D01*
X16525757Y-15566729D01*
X16511471Y-15523871D01*
X16497186Y-15495300D01*
X16468614Y-15452443D01*
X16454328Y-15438157D01*
X9817900Y-15966300D02*
X9967900Y-16116300D01*
X9967900Y-15966300D02*
X9817900Y-16116300D01*
X9967900Y-16041300D02*
G75*
G03X9967900Y-16041300I-75000J0D01*
G01*
X10411471Y-16177014D02*
X10240043Y-16177014D01*
X10325757Y-16177014D02*
X10325757Y-15877014D01*
X10297186Y-15919871D01*
X10268614Y-15948443D01*
X10240043Y-15962729D01*
X10540043Y-16148443D02*
X10554328Y-16162729D01*
X10540043Y-16177014D01*
X10525757Y-16162729D01*
X10540043Y-16148443D01*
X10540043Y-16177014D01*
X10825757Y-15877014D02*
X10682900Y-15877014D01*
X10668614Y-16019871D01*
X10682900Y-16005586D01*
X10711471Y-15991300D01*
X10782900Y-15991300D01*
X10811471Y-16005586D01*
X10825757Y-16019871D01*
X10840043Y-16048443D01*
X10840043Y-16119871D01*
X10825757Y-16148443D01*
X10811471Y-16162729D01*
X10782900Y-16177014D01*
X10711471Y-16177014D01*
X10682900Y-16162729D01*
X10668614Y-16148443D01*
X11025757Y-15877014D02*
X11054328Y-15877014D01*
X11082900Y-15891300D01*
X11097186Y-15905586D01*
X11111471Y-15934157D01*
X11125757Y-15991300D01*
X11125757Y-16062729D01*
X11111471Y-16119871D01*
X11097186Y-16148443D01*
X11082900Y-16162729D01*
X11054328Y-16177014D01*
X11025757Y-16177014D01*
X10997186Y-16162729D01*
X10982900Y-16148443D01*
X10968614Y-16119871D01*
X10954328Y-16062729D01*
X10954328Y-15991300D01*
X10968614Y-15934157D01*
X10982900Y-15905586D01*
X10997186Y-15891300D01*
X11025757Y-15877014D01*
X11254328Y-16177014D02*
X11254328Y-15977014D01*
X11254328Y-16005586D02*
X11268614Y-15991300D01*
X11297186Y-15977014D01*
X11340043Y-15977014D01*
X11368614Y-15991300D01*
X11382900Y-16019871D01*
X11382900Y-16177014D01*
X11382900Y-16019871D02*
X11397186Y-15991300D01*
X11425757Y-15977014D01*
X11468614Y-15977014D01*
X11497186Y-15991300D01*
X11511471Y-16019871D01*
X11511471Y-16177014D01*
X11654328Y-16177014D02*
X11654328Y-15977014D01*
X11654328Y-16005586D02*
X11668614Y-15991300D01*
X11697186Y-15977014D01*
X11740043Y-15977014D01*
X11768614Y-15991300D01*
X11782900Y-16019871D01*
X11782900Y-16177014D01*
X11782900Y-16019871D02*
X11797186Y-15991300D01*
X11825757Y-15977014D01*
X11868614Y-15977014D01*
X11897186Y-15991300D01*
X11911471Y-16019871D01*
X11911471Y-16177014D01*
X12497186Y-15862729D02*
X12240043Y-16248443D01*
X12882900Y-15877014D02*
X12911471Y-15877014D01*
X12940043Y-15891300D01*
X12954328Y-15905586D01*
X12968614Y-15934157D01*
X12982900Y-15991300D01*
X12982900Y-16062729D01*
X12968614Y-16119871D01*
X12954328Y-16148443D01*
X12940043Y-16162729D01*
X12911471Y-16177014D01*
X12882900Y-16177014D01*
X12854328Y-16162729D01*
X12840043Y-16148443D01*
X12825757Y-16119871D01*
X12811471Y-16062729D01*
X12811471Y-15991300D01*
X12825757Y-15934157D01*
X12840043Y-15905586D01*
X12854328Y-15891300D01*
X12882900Y-15877014D01*
X13111471Y-16148443D02*
X13125757Y-16162729D01*
X13111471Y-16177014D01*
X13097186Y-16162729D01*
X13111471Y-16148443D01*
X13111471Y-16177014D01*
X13311471Y-15877014D02*
X13340043Y-15877014D01*
X13368614Y-15891300D01*
X13382900Y-15905586D01*
X13397186Y-15934157D01*
X13411471Y-15991300D01*
X13411471Y-16062729D01*
X13397186Y-16119871D01*
X13382900Y-16148443D01*
X13368614Y-16162729D01*
X13340043Y-16177014D01*
X13311471Y-16177014D01*
X13282900Y-16162729D01*
X13268614Y-16148443D01*
X13254328Y-16119871D01*
X13240043Y-16062729D01*
X13240043Y-15991300D01*
X13254328Y-15934157D01*
X13268614Y-15905586D01*
X13282900Y-15891300D01*
X13311471Y-15877014D01*
X13682900Y-15877014D02*
X13540043Y-15877014D01*
X13525757Y-16019871D01*
X13540043Y-16005586D01*
X13568614Y-15991300D01*
X13640043Y-15991300D01*
X13668614Y-16005586D01*
X13682900Y-16019871D01*
X13697186Y-16048443D01*
X13697186Y-16119871D01*
X13682900Y-16148443D01*
X13668614Y-16162729D01*
X13640043Y-16177014D01*
X13568614Y-16177014D01*
X13540043Y-16162729D01*
X13525757Y-16148443D01*
X13840043Y-16177014D02*
X13897186Y-16177014D01*
X13925757Y-16162729D01*
X13940043Y-16148443D01*
X13968614Y-16105586D01*
X13982900Y-16048443D01*
X13982900Y-15934157D01*
X13968614Y-15905586D01*
X13954328Y-15891300D01*
X13925757Y-15877014D01*
X13868614Y-15877014D01*
X13840043Y-15891300D01*
X13825757Y-15905586D01*
X13811471Y-15934157D01*
X13811471Y-16005586D01*
X13825757Y-16034157D01*
X13840043Y-16048443D01*
X13868614Y-16062729D01*
X13925757Y-16062729D01*
X13954328Y-16048443D01*
X13968614Y-16034157D01*
X13982900Y-16005586D01*
X14097186Y-15877014D02*
X14097186Y-15934157D01*
X14211471Y-15877014D02*
X14211471Y-15934157D01*
X14654328Y-16291300D02*
X14640043Y-16277014D01*
X14611471Y-16234157D01*
X14597186Y-16205586D01*
X14582900Y-16162729D01*
X14568614Y-16091300D01*
X14568614Y-16034157D01*
X14582900Y-15962729D01*
X14597186Y-15919871D01*
X14611471Y-15891300D01*
X14640043Y-15848443D01*
X14654328Y-15834157D01*
X14754328Y-15905586D02*
X14768614Y-15891300D01*
X14797186Y-15877014D01*
X14868614Y-15877014D01*
X14897186Y-15891300D01*
X14911471Y-15905586D01*
X14925757Y-15934157D01*
X14925757Y-15962729D01*
X14911471Y-16005586D01*
X14740043Y-16177014D01*
X14925757Y-16177014D01*
X15282900Y-16177014D02*
X15282900Y-15877014D01*
X15411471Y-16177014D02*
X15411471Y-16019871D01*
X15397186Y-15991300D01*
X15368614Y-15977014D01*
X15325757Y-15977014D01*
X15297186Y-15991300D01*
X15282900Y-16005586D01*
X15597186Y-16177014D02*
X15568614Y-16162729D01*
X15554328Y-16148443D01*
X15540043Y-16119871D01*
X15540043Y-16034157D01*
X15554328Y-16005586D01*
X15568614Y-15991300D01*
X15597186Y-15977014D01*
X15640043Y-15977014D01*
X15668614Y-15991300D01*
X15682900Y-16005586D01*
X15697186Y-16034157D01*
X15697186Y-16119871D01*
X15682900Y-16148443D01*
X15668614Y-16162729D01*
X15640043Y-16177014D01*
X15597186Y-16177014D01*
X15868614Y-16177014D02*
X15840043Y-16162729D01*
X15825757Y-16134157D01*
X15825757Y-15877014D01*
X16097186Y-16162729D02*
X16068614Y-16177014D01*
X16011471Y-16177014D01*
X15982900Y-16162729D01*
X15968614Y-16134157D01*
X15968614Y-16019871D01*
X15982900Y-15991300D01*
X16011471Y-15977014D01*
X16068614Y-15977014D01*
X16097186Y-15991300D01*
X16111471Y-16019871D01*
X16111471Y-16048443D01*
X15968614Y-16077014D01*
X16225757Y-16162729D02*
X16254328Y-16177014D01*
X16311471Y-16177014D01*
X16340043Y-16162729D01*
X16354328Y-16134157D01*
X16354328Y-16119871D01*
X16340043Y-16091300D01*
X16311471Y-16077014D01*
X16268614Y-16077014D01*
X16240043Y-16062729D01*
X16225757Y-16034157D01*
X16225757Y-16019871D01*
X16240043Y-15991300D01*
X16268614Y-15977014D01*
X16311471Y-15977014D01*
X16340043Y-15991300D01*
X16454328Y-16291300D02*
X16468614Y-16277014D01*
X16497186Y-16234157D01*
X16511471Y-16205586D01*
X16525757Y-16162729D01*
X16540043Y-16091300D01*
X16540043Y-16034157D01*
X16525757Y-15962729D01*
X16511471Y-15919871D01*
X16497186Y-15891300D01*
X16468614Y-15848443D01*
X16454328Y-15834157D01*
X9647900Y-16277300D02*
X9967900Y-16597300D01*
X9967900Y-16277300D02*
X9647900Y-16597300D01*
X9807900Y-16277300D02*
X9807900Y-16597300D01*
X9647900Y-16437300D02*
X9967900Y-16437300D01*
X10225757Y-16273014D02*
X10411471Y-16273014D01*
X10311471Y-16387300D01*
X10354328Y-16387300D01*
X10382900Y-16401586D01*
X10397186Y-16415871D01*
X10411471Y-16444443D01*
X10411471Y-16515871D01*
X10397186Y-16544443D01*
X10382900Y-16558729D01*
X10354328Y-16573014D01*
X10268614Y-16573014D01*
X10240043Y-16558729D01*
X10225757Y-16544443D01*
X10540043Y-16544443D02*
X10554328Y-16558729D01*
X10540043Y-16573014D01*
X10525757Y-16558729D01*
X10540043Y-16544443D01*
X10540043Y-16573014D01*
X10668614Y-16301586D02*
X10682900Y-16287300D01*
X10711471Y-16273014D01*
X10782900Y-16273014D01*
X10811471Y-16287300D01*
X10825757Y-16301586D01*
X10840043Y-16330157D01*
X10840043Y-16358729D01*
X10825757Y-16401586D01*
X10654328Y-16573014D01*
X10840043Y-16573014D01*
X11025757Y-16273014D02*
X11054328Y-16273014D01*
X11082900Y-16287300D01*
X11097186Y-16301586D01*
X11111471Y-16330157D01*
X11125757Y-16387300D01*
X11125757Y-16458729D01*
X11111471Y-16515871D01*
X11097186Y-16544443D01*
X11082900Y-16558729D01*
X11054328Y-16573014D01*
X11025757Y-16573014D01*
X10997186Y-16558729D01*
X10982900Y-16544443D01*
X10968614Y-16515871D01*
X10954328Y-16458729D01*
X10954328Y-16387300D01*
X10968614Y-16330157D01*
X10982900Y-16301586D01*
X10997186Y-16287300D01*
X11025757Y-16273014D01*
X11254328Y-16573014D02*
X11254328Y-16373014D01*
X11254328Y-16401586D02*
X11268614Y-16387300D01*
X11297186Y-16373014D01*
X11340043Y-16373014D01*
X11368614Y-16387300D01*
X11382900Y-16415871D01*
X11382900Y-16573014D01*
X11382900Y-16415871D02*
X11397186Y-16387300D01*
X11425757Y-16373014D01*
X11468614Y-16373014D01*
X11497186Y-16387300D01*
X11511471Y-16415871D01*
X11511471Y-16573014D01*
X11654328Y-16573014D02*
X11654328Y-16373014D01*
X11654328Y-16401586D02*
X11668614Y-16387300D01*
X11697186Y-16373014D01*
X11740043Y-16373014D01*
X11768614Y-16387300D01*
X11782900Y-16415871D01*
X11782900Y-16573014D01*
X11782900Y-16415871D02*
X11797186Y-16387300D01*
X11825757Y-16373014D01*
X11868614Y-16373014D01*
X11897186Y-16387300D01*
X11911471Y-16415871D01*
X11911471Y-16573014D01*
X12497186Y-16258729D02*
X12240043Y-16644443D01*
X12882900Y-16273014D02*
X12911471Y-16273014D01*
X12940043Y-16287300D01*
X12954328Y-16301586D01*
X12968614Y-16330157D01*
X12982900Y-16387300D01*
X12982900Y-16458729D01*
X12968614Y-16515871D01*
X12954328Y-16544443D01*
X12940043Y-16558729D01*
X12911471Y-16573014D01*
X12882900Y-16573014D01*
X12854328Y-16558729D01*
X12840043Y-16544443D01*
X12825757Y-16515871D01*
X12811471Y-16458729D01*
X12811471Y-16387300D01*
X12825757Y-16330157D01*
X12840043Y-16301586D01*
X12854328Y-16287300D01*
X12882900Y-16273014D01*
X13111471Y-16544443D02*
X13125757Y-16558729D01*
X13111471Y-16573014D01*
X13097186Y-16558729D01*
X13111471Y-16544443D01*
X13111471Y-16573014D01*
X13411471Y-16573014D02*
X13240043Y-16573014D01*
X13325757Y-16573014D02*
X13325757Y-16273014D01*
X13297186Y-16315871D01*
X13268614Y-16344443D01*
X13240043Y-16358729D01*
X13525757Y-16301586D02*
X13540043Y-16287300D01*
X13568614Y-16273014D01*
X13640043Y-16273014D01*
X13668614Y-16287300D01*
X13682900Y-16301586D01*
X13697186Y-16330157D01*
X13697186Y-16358729D01*
X13682900Y-16401586D01*
X13511471Y-16573014D01*
X13697186Y-16573014D01*
X13954328Y-16273014D02*
X13897186Y-16273014D01*
X13868614Y-16287300D01*
X13854328Y-16301586D01*
X13825757Y-16344443D01*
X13811471Y-16401586D01*
X13811471Y-16515871D01*
X13825757Y-16544443D01*
X13840043Y-16558729D01*
X13868614Y-16573014D01*
X13925757Y-16573014D01*
X13954328Y-16558729D01*
X13968614Y-16544443D01*
X13982900Y-16515871D01*
X13982900Y-16444443D01*
X13968614Y-16415871D01*
X13954328Y-16401586D01*
X13925757Y-16387300D01*
X13868614Y-16387300D01*
X13840043Y-16401586D01*
X13825757Y-16415871D01*
X13811471Y-16444443D01*
X14097186Y-16273014D02*
X14097186Y-16330157D01*
X14211471Y-16273014D02*
X14211471Y-16330157D01*
X14654328Y-16687300D02*
X14640043Y-16673014D01*
X14611471Y-16630157D01*
X14597186Y-16601586D01*
X14582900Y-16558729D01*
X14568614Y-16487300D01*
X14568614Y-16430157D01*
X14582900Y-16358729D01*
X14597186Y-16315871D01*
X14611471Y-16287300D01*
X14640043Y-16244443D01*
X14654328Y-16230157D01*
X14897186Y-16373014D02*
X14897186Y-16573014D01*
X14825757Y-16258729D02*
X14754328Y-16473014D01*
X14940043Y-16473014D01*
X15282900Y-16573014D02*
X15282900Y-16273014D01*
X15411471Y-16573014D02*
X15411471Y-16415871D01*
X15397186Y-16387300D01*
X15368614Y-16373014D01*
X15325757Y-16373014D01*
X15297186Y-16387300D01*
X15282900Y-16401586D01*
X15597186Y-16573014D02*
X15568614Y-16558729D01*
X15554328Y-16544443D01*
X15540043Y-16515871D01*
X15540043Y-16430157D01*
X15554328Y-16401586D01*
X15568614Y-16387300D01*
X15597186Y-16373014D01*
X15640043Y-16373014D01*
X15668614Y-16387300D01*
X15682900Y-16401586D01*
X15697186Y-16430157D01*
X15697186Y-16515871D01*
X15682900Y-16544443D01*
X15668614Y-16558729D01*
X15640043Y-16573014D01*
X15597186Y-16573014D01*
X15868614Y-16573014D02*
X15840043Y-16558729D01*
X15825757Y-16530157D01*
X15825757Y-16273014D01*
X16097186Y-16558729D02*
X16068614Y-16573014D01*
X16011471Y-16573014D01*
X15982900Y-16558729D01*
X15968614Y-16530157D01*
X15968614Y-16415871D01*
X15982900Y-16387300D01*
X16011471Y-16373014D01*
X16068614Y-16373014D01*
X16097186Y-16387300D01*
X16111471Y-16415871D01*
X16111471Y-16444443D01*
X15968614Y-16473014D01*
X16225757Y-16558729D02*
X16254328Y-16573014D01*
X16311471Y-16573014D01*
X16340043Y-16558729D01*
X16354328Y-16530157D01*
X16354328Y-16515871D01*
X16340043Y-16487300D01*
X16311471Y-16473014D01*
X16268614Y-16473014D01*
X16240043Y-16458729D01*
X16225757Y-16430157D01*
X16225757Y-16415871D01*
X16240043Y-16387300D01*
X16268614Y-16373014D01*
X16311471Y-16373014D01*
X16340043Y-16387300D01*
X16454328Y-16687300D02*
X16468614Y-16673014D01*
X16497186Y-16630157D01*
X16511471Y-16601586D01*
X16525757Y-16558729D01*
X16540043Y-16487300D01*
X16540043Y-16430157D01*
X16525757Y-16358729D01*
X16511471Y-16315871D01*
X16497186Y-16287300D01*
X16468614Y-16244443D01*
X16454328Y-16230157D01*
M02*
