%FSLAX45Y45*%
G04 Gerber Fmt 4.5, Leading zero omitted, Abs format (unit mm)*
G04 Created by KiCad (PCBNEW (5.1.2)-1) date 2022-03-05 22:59:54*
%MOMM*%
%LPD*%
G04 APERTURE LIST*
%ADD10C,0.050000*%
%ADD11C,0.200000*%
%ADD12C,0.300000*%
G04 APERTURE END LIST*
D10*
X9970400Y-5598800D02*
X9970400Y-13098800D01*
X19970400Y-5598800D02*
X9970400Y-5598800D01*
X19970400Y-13098800D02*
X19970400Y-5598800D01*
X9970400Y-13098800D02*
X19970400Y-13098800D01*
D11*
D12*
X10254328Y-13567014D02*
X10254328Y-13267014D01*
X10325757Y-13267014D01*
X10368614Y-13281300D01*
X10397186Y-13309871D01*
X10411471Y-13338443D01*
X10425757Y-13395586D01*
X10425757Y-13438443D01*
X10411471Y-13495586D01*
X10397186Y-13524157D01*
X10368614Y-13552729D01*
X10325757Y-13567014D01*
X10254328Y-13567014D01*
X10554328Y-13567014D02*
X10554328Y-13367014D01*
X10554328Y-13424157D02*
X10568614Y-13395586D01*
X10582900Y-13381300D01*
X10611471Y-13367014D01*
X10640043Y-13367014D01*
X10740043Y-13567014D02*
X10740043Y-13367014D01*
X10740043Y-13267014D02*
X10725757Y-13281300D01*
X10740043Y-13295586D01*
X10754328Y-13281300D01*
X10740043Y-13267014D01*
X10740043Y-13295586D01*
X10925757Y-13567014D02*
X10897186Y-13552729D01*
X10882900Y-13524157D01*
X10882900Y-13267014D01*
X11082900Y-13567014D02*
X11054328Y-13552729D01*
X11040043Y-13524157D01*
X11040043Y-13267014D01*
X11425757Y-13567014D02*
X11425757Y-13267014D01*
X11525757Y-13481300D01*
X11625757Y-13267014D01*
X11625757Y-13567014D01*
X11897186Y-13567014D02*
X11897186Y-13409871D01*
X11882900Y-13381300D01*
X11854328Y-13367014D01*
X11797186Y-13367014D01*
X11768614Y-13381300D01*
X11897186Y-13552729D02*
X11868614Y-13567014D01*
X11797186Y-13567014D01*
X11768614Y-13552729D01*
X11754328Y-13524157D01*
X11754328Y-13495586D01*
X11768614Y-13467014D01*
X11797186Y-13452729D01*
X11868614Y-13452729D01*
X11897186Y-13438443D01*
X12040043Y-13367014D02*
X12040043Y-13667014D01*
X12040043Y-13381300D02*
X12068614Y-13367014D01*
X12125757Y-13367014D01*
X12154328Y-13381300D01*
X12168614Y-13395586D01*
X12182900Y-13424157D01*
X12182900Y-13509871D01*
X12168614Y-13538443D01*
X12154328Y-13552729D01*
X12125757Y-13567014D01*
X12068614Y-13567014D01*
X12040043Y-13552729D01*
X12311471Y-13538443D02*
X12325757Y-13552729D01*
X12311471Y-13567014D01*
X12297186Y-13552729D01*
X12311471Y-13538443D01*
X12311471Y-13567014D01*
X12311471Y-13381300D02*
X12325757Y-13395586D01*
X12311471Y-13409871D01*
X12297186Y-13395586D01*
X12311471Y-13381300D01*
X12311471Y-13409871D01*
M02*
