M48
; DRILL file {KiCad (5.1.2)-1} date 05/03/2022 22:59:52
; FORMAT={-:-/ absolute / metric / decimal}
; #@! TF.CreationDate,2022-03-05T22:59:52+01:00
; #@! TF.GenerationSoftware,Kicad,Pcbnew,(5.1.2)-1
; #@! TF.FileFunction,Plated,1,4,PTH
FMAT,2
METRIC
T1C0.300
T2C0.400
T3C0.762
T4C1.000
T5C1.100
T6C1.500
T7C3.200
%
G90
G05
T1
X104.14Y-68.58
X104.14Y-73.66
X104.14Y-78.74
X104.14Y-83.82
X104.14Y-99.06
X104.14Y-104.14
X109.22Y-63.5
X109.22Y-68.58
X109.22Y-73.66
X109.22Y-78.74
X111.76Y-124.46
X111.76Y-127.0
X111.76Y-129.54
X114.3Y-73.66
X114.3Y-78.74
X114.3Y-83.82
X114.3Y-88.9
X114.3Y-104.14
X116.84Y-121.92
X116.84Y-124.46
X116.84Y-127.0
X116.84Y-129.54
X119.38Y-78.74
X119.38Y-83.82
X119.38Y-88.9
X119.4Y-104.1
X121.92Y-119.38
X121.92Y-121.92
X121.92Y-124.46
X122.428Y-105.664
X122.428Y-107.696
X122.428Y-109.728
X122.428Y-112.268
X124.0Y-129.4
X124.968Y-112.268
X125.204Y-83.988
X125.204Y-88.988
X127.508Y-107.696
X127.508Y-109.728
X127.508Y-112.268
X128.2Y-100.3
X129.25Y-74.0
X129.54Y-89.6
X129.6Y-93.8
X129.6Y-99.0
X130.048Y-107.696
X130.048Y-109.728
X130.204Y-83.988
X131.8Y-87.2
X131.8Y-91.8
X131.8Y-96.4
X132.5Y-76.75
X132.588Y-107.696
X134.62Y-111.76
X134.62Y-114.3
X134.62Y-121.92
X134.62Y-127.0
X134.62Y-129.54
X136.8Y-97.4
X137.16Y-111.76
X137.16Y-114.3
X137.414Y-102.362
X138.0Y-110.25
X138.049Y-107.188
X139.4Y-108.2
X139.7Y-114.3
X139.7Y-121.92
X139.7Y-129.54
X140.6Y-99.2
X140.75Y-75.5
X141.6Y-97.0
X141.614Y-96.272
X141.8Y-90.37
X141.8Y-91.548
X142.24Y-121.92
X142.4Y-97.0
X142.401Y-96.272
X142.748Y-103.124
X143.0Y-90.4
X143.0Y-91.548
X143.408Y-109.271
X144.78Y-91.44
X144.78Y-101.727
X144.78Y-104.14
X144.78Y-106.68
X144.78Y-121.92
X144.78Y-129.54
X145.5Y-97.0
X145.542Y-116.713
X146.05Y-117.475
X146.558Y-98.552
X147.3Y-102.2
X147.3Y-108.9
X147.32Y-81.28
X147.32Y-104.14
X147.32Y-106.68
X147.32Y-121.92
X148.082Y-113.919
X148.717Y-114.554
X149.816Y-114.471
X149.86Y-104.14
X149.86Y-106.68
X149.86Y-109.855
X149.86Y-129.54
X150.0Y-95.5
X150.5Y-82.5
X151.13Y-102.235
X151.235Y-74.485
X151.765Y-75.015
X152.4Y-78.74
X152.4Y-81.28
X152.4Y-86.36
X152.4Y-91.44
X152.4Y-114.995
X153.75Y-96.0
X154.051Y-110.109
X154.94Y-78.74
X154.94Y-81.28
X154.94Y-114.3
X154.94Y-129.54
X156.147Y-120.206
X156.2Y-102.2
X157.48Y-86.36
X157.48Y-91.44
X157.48Y-113.792
X158.496Y-77.724
X158.496Y-79.248
X158.496Y-80.772
X160.02Y-77.724
X160.02Y-79.248
X160.02Y-80.772
X160.02Y-101.6
X160.02Y-113.792
X160.02Y-119.38
X160.02Y-129.54
X161.544Y-80.772
X162.941Y-107.95
X163.068Y-80.772
X163.068Y-113.792
X163.4Y-89.6
X163.6Y-83.2
X164.338Y-107.95
X164.592Y-77.724
X164.592Y-79.248
X164.592Y-80.772
X164.973Y-97.663
X165.1Y-101.6
X165.1Y-119.38
X165.1Y-121.92
X165.1Y-129.54
X165.608Y-77.724
X165.608Y-79.248
X165.608Y-80.772
X165.862Y-107.95
X166.116Y-113.792
X166.2Y-87.2
X166.6Y-72.8
X167.5Y-68.5
X167.75Y-65.0
X167.894Y-107.95
X169.164Y-113.792
X169.926Y-107.95
X170.18Y-76.2
X170.18Y-81.28
X170.18Y-96.52
X170.18Y-101.6
X170.18Y-119.38
X170.18Y-121.92
X170.18Y-129.54
X171.577Y-105.791
X171.577Y-110.363
X171.704Y-116.84
X171.958Y-107.95
X172.212Y-113.792
X173.228Y-116.332
X173.609Y-105.791
X173.609Y-110.363
X173.99Y-107.95
X174.126Y-121.901
X174.212Y-112.3
X174.244Y-116.332
X175.26Y-71.12
X175.26Y-76.2
X175.26Y-81.28
X175.26Y-86.36
X175.26Y-91.44
X175.26Y-96.52
X175.26Y-99.06
X175.26Y-101.6
X175.26Y-119.38
X175.26Y-129.54
X175.329Y-105.791
X175.641Y-110.363
X176.022Y-107.95
X176.515Y-121.394
X177.26Y-112.3
X178.054Y-107.95
X178.181Y-110.363
X180.026Y-105.47
X180.213Y-110.363
X180.34Y-71.12
X180.34Y-71.12
X180.34Y-76.2
X180.34Y-81.28
X180.34Y-86.36
X180.34Y-91.44
X180.34Y-96.52
X180.34Y-99.06
X180.34Y-101.6
X180.34Y-129.54
X180.594Y-107.95
X180.816Y-112.3
X181.55Y-105.47
X182.118Y-101.219
X182.626Y-109.982
X185.42Y-71.12
X185.42Y-76.2
X185.42Y-81.28
X185.42Y-86.36
X185.42Y-91.44
X185.42Y-96.52
X190.5Y-66.04
X190.5Y-71.12
X190.5Y-76.2
X190.5Y-81.28
X190.5Y-91.44
X190.5Y-96.52
X190.5Y-111.76
X190.5Y-116.84
X193.04Y-101.6
X193.04Y-106.68
X195.58Y-66.04
X195.58Y-71.12
X195.58Y-76.2
X195.58Y-81.28
X195.58Y-91.44
X195.58Y-96.52
X195.58Y-101.6
X195.58Y-106.68
X195.58Y-111.76
X195.58Y-116.84
T2
X105.41Y-112.395
X105.41Y-115.57
X105.41Y-121.393
X105.419Y-118.853
X125.349Y-123.571
X127.127Y-79.756
X134.62Y-73.914
X136.144Y-69.596
X141.732Y-79.502
X143.938Y-83.32
X148.209Y-98.171
X148.717Y-67.564
X157.607Y-100.965
X167.767Y-71.374
T3
X106.054Y-89.643
X106.054Y-92.183
X106.054Y-94.723
X106.054Y-97.263
X108.594Y-89.643
X108.594Y-92.183
X108.594Y-94.723
X108.594Y-97.263
T4
X122.682Y-76.454
X122.682Y-78.994
X111.506Y-60.706
X111.506Y-63.246
X114.046Y-60.706
X114.046Y-63.246
X116.586Y-60.706
X116.586Y-63.246
X119.126Y-60.706
X119.126Y-63.246
X121.666Y-60.706
X121.666Y-63.246
X124.206Y-60.706
X124.206Y-63.246
X126.746Y-60.706
X126.746Y-63.246
X129.286Y-60.706
X129.286Y-63.246
X131.826Y-60.706
X131.826Y-63.246
X134.366Y-60.706
X134.366Y-63.246
X136.906Y-60.706
X136.906Y-63.246
X139.446Y-60.706
X139.446Y-63.246
X141.986Y-60.706
X141.986Y-63.246
X144.526Y-60.706
X144.526Y-63.246
X147.066Y-60.706
X147.066Y-63.246
X149.606Y-60.706
X149.606Y-63.246
X152.146Y-60.706
X152.146Y-63.246
X154.686Y-60.706
X154.686Y-63.246
X157.226Y-60.706
X157.226Y-63.246
X159.766Y-60.706
X159.766Y-63.246
X168.529Y-125.603
X171.069Y-125.603
X173.609Y-125.603
X176.149Y-125.603
X178.689Y-125.603
X181.229Y-125.603
X138.284Y-123.648
X138.284Y-126.188
X140.824Y-123.648
X140.824Y-126.188
X143.364Y-123.648
X143.364Y-126.188
X145.904Y-123.648
X145.904Y-126.188
X148.444Y-123.648
X148.444Y-126.188
X150.984Y-123.648
X150.984Y-126.188
X153.524Y-123.648
X153.524Y-126.188
X156.064Y-123.648
X156.064Y-126.188
X158.604Y-123.648
X158.604Y-126.188
X161.144Y-123.648
X161.144Y-126.188
X165.354Y-60.706
X165.354Y-63.246
X167.894Y-60.706
X167.894Y-63.246
X170.434Y-60.706
X170.434Y-63.246
X172.974Y-60.706
X172.974Y-63.246
X175.514Y-60.706
X175.514Y-63.246
X178.054Y-60.706
X178.054Y-63.246
X180.594Y-60.706
X180.594Y-63.246
X183.134Y-60.706
X183.134Y-63.246
X185.674Y-60.706
X185.674Y-63.246
X188.214Y-60.706
X188.214Y-63.246
T5
X184.841Y-120.583
X184.841Y-127.083
X189.341Y-120.583
X189.341Y-127.083
T6
X171.704Y-87.0
X192.194Y-87.0
T7
X104.704Y-60.988
X194.704Y-60.988
X104.704Y-125.988
X194.704Y-125.988
T0
M30
